<svg width="95" height="95" viewBox="0 0 95 95" fill="none" xmlns="http://www.w3.org/2000/svg">
<rect x="40.5533" width="20.6522" height="60.0791" fill="#FF79C6"/>
<rect x="17.6482" y="13.5178" width="43.5573" height="37.9249" fill="#FF79C6"/>
<rect x="58.5771" y="20.2767" width="29.664" height="27.4111" fill="#FF79C6"/>
<rect x="24.4071" y="6.7589" width="50.3162" height="14.6443" fill="#FF79C6"/>
<rect x="4.13043" y="27.4111" width="21.0277" height="20.2767" fill="#FF79C6"/>
<rect x="87.4901" y="37.1739" width="7.50988" height="28.913" fill="#FF79C6"/>
<rect x="81.1067" y="40.5534" width="13.8933" height="21.4032" fill="#FF79C6"/>
<rect y="56.3559" width="6.44068" height="38.6441" fill="#FF79C6"/>
<rect x="67.8571" y="81.4286" width="6.78571" height="6.78571" fill="#FF79C6"/>
<rect x="61.0714" y="81.4286" width="6.78571" height="6.78571" fill="#FF79C6"/>
<rect x="61.1864" y="66.0169" width="6.44068" height="28.9831" fill="#FF79C6"/>
<rect x="53.9407" y="67.6271" width="20.9322" height="20.9322" fill="#FF79C6"/>
<rect x="67.8571" y="74.6429" width="6.78571" height="6.78571" fill="#FF79C6"/>
<rect x="74.6429" y="74.6429" width="6.78571" height="6.78571" fill="#FF79C6"/>
<rect x="88.2143" y="40.7143" width="6.78571" height="40.7143" fill="#FF79C6"/>
<rect x="81.4286" y="74.6429" width="6.78571" height="6.78571" fill="#FF79C6"/>
<rect x="88.2143" y="81.4286" width="6.78571" height="6.78571" fill="#FF79C6"/>
<rect x="88.5593" y="67.6271" width="6.44068" height="27.3729" fill="#FF79C6"/>
<rect x="81.4286" y="33.9286" width="6.78571" height="6.78571" fill="#6272A4"/>
<rect x="44.7857" y="33.9286" width="6.78571" height="6.78571" fill="#6272A4"/>
<rect x="17.6482" y="13.5178" width="63.834" height="8.63636" fill="#FF79C6"/>
<rect x="67.8571" y="13.5714" width="6.78571" height="6.78571" fill="#FF79C6"/>
<rect x="67.8571" y="6.78572" width="6.78571" height="6.78571" fill="#FF79C6"/>
<rect x="61.0714" y="20.3571" width="6.78571" height="6.78571" fill="#FF79C6"/>
<rect x="51.4427" y="21.0277" width="9.76285" height="24.7826" fill="#FF79C6"/>
<rect x="44.7857" y="40.7143" width="23.0714" height="6.78571" fill="#FF79C6"/>
<rect x="44.7857" y="20.3571" width="16.2857" height="6.78571" fill="#FF79C6"/>
<rect x="61.0714" y="6.78572" width="6.78571" height="13.5714" fill="#FF79C6"/>
<rect x="54.2857" y="6.78572" width="6.78571" height="13.5714" fill="#FF79C6"/>
<rect x="47.5" y="6.78572" width="6.78571" height="13.5714" fill="#FF79C6"/>
<rect x="47.6877" width="6.75889" height="19.5257" fill="#FF79C6"/>
<rect x="54.4467" width="6.75889" height="19.5257" fill="#FF79C6"/>
<rect x="40.7143" y="6.78572" width="6.78571" height="13.5714" fill="#FF79C6"/>
<rect x="33.9286" y="6.78572" width="6.78571" height="13.5714" fill="#FF79C6"/>
<rect x="81.4286" y="27.1429" width="6.78571" height="6.78571" fill="#6272A4"/>
<rect x="44.7857" y="27.1429" width="6.78571" height="6.78571" fill="#6272A4"/>
<rect x="74.6429" y="27.1429" width="6.78571" height="6.78571" fill="#6272A4"/>
<rect x="38" y="27.1429" width="6.78571" height="6.78571" fill="#6272A4"/>
<rect x="74.6429" y="20.3571" width="6.78571" height="6.78571" fill="#F8F8F2"/>
<rect x="38" y="20.3571" width="6.78571" height="6.78571" fill="#F8F8F2"/>
<rect x="67.8571" y="20.3571" width="6.78571" height="6.78571" fill="#F8F8F2"/>
<rect x="31.166" y="20.2767" width="13.5178" height="6.75889" fill="#F8F8F2"/>
<rect x="67.9644" y="40.5534" width="13.5178" height="6.75889" fill="#F8F8F2"/>
<rect x="31.166" y="40.5534" width="13.5178" height="6.75889" fill="#F8F8F2"/>
<rect x="67.9644" y="40.5534" width="13.5178" height="6.75889" fill="#F8F8F2"/>
<rect x="34.5455" y="40.5534" width="10.1383" height="6.75889" fill="#F8F8F2"/>
<rect x="61.2055" y="27.0356" width="6.75889" height="13.5178" fill="#F8F8F2"/>
<rect x="24.4071" y="27.0356" width="6.75889" height="13.5178" fill="#F8F8F2"/>
<rect x="74.7233" y="27.0356" width="13.5178" height="13.5178" fill="#6272A4"/>
<rect x="37.9249" y="27.0356" width="13.5178" height="13.5178" fill="#6272A4"/>
<rect x="31.2143" y="33.9286" width="6.78571" height="6.78571" fill="#6272A4" fill-opacity="0.5"/>
<rect x="67.9644" y="27.0356" width="6.75889" height="13.5178" fill="#6272A4" fill-opacity="0.5"/>
<rect x="31.2143" y="27.1429" width="6.78571" height="6.78571" fill="#6272A4" fill-opacity="0.5"/>
<rect x="81.3136" y="67.6271" width="13.6864" height="20.9322" fill="#FF79C6"/>
<rect y="81.4286" width="6.78571" height="6.78571" fill="#FF79C6"/>
<rect y="58.7712" width="13.6864" height="29.7881" fill="#FF79C6"/>
<rect y="67.8571" width="13.5714" height="13.5714" fill="#FF79C6"/>
<rect y="54.2857" width="13.5714" height="13.5714" fill="#FF79C6"/>
<rect y="40.7143" width="31.2143" height="13.5714" fill="#FF79C6"/>
<rect x="10.8571" y="20.3571" width="13.5714" height="13.5714" fill="#FF79C6"/>
<rect x="13.5714" y="54.2857" width="13.5714" height="13.5714" fill="#FF79C6"/>
<rect x="13.5714" y="67.8571" width="13.5714" height="13.5714" fill="#FF79C6"/>
<rect x="27.1429" y="81.4286" width="13.5714" height="13.5714" fill="#FF79C6"/>
<rect x="33.9286" y="74.6429" width="13.5714" height="13.5714" fill="#FF79C6"/>
<rect x="40.7143" y="67.8571" width="13.5714" height="13.5714" fill="#FF79C6"/>
<rect x="54.2857" y="67.8571" width="33.9286" height="13.5714" fill="#FF79C6"/>
<rect x="20.3571" y="74.6429" width="13.5714" height="13.5714" fill="#FF79C6"/>
<rect x="27.1429" y="67.8571" width="13.5714" height="13.5714" fill="#FF79C6"/>
<rect y="47.5" width="95" height="33.8136" fill="#FF79C6"/>
</svg>
