<svg width="602" height="247" viewBox="0 0 602 247" fill="none" xmlns="http://www.w3.org/2000/svg">
<rect x="267.271" y="39.9219" width="222.078" height="67.9583" fill="#F8F8F2"/>
<rect x="267" y="29" width="231" height="87" fill="#F8F8F2"/>
<rect x="100" y="29" width="398" height="87" fill="#F8F8F2"/>
<rect x="100" width="398" height="87" fill="#F8F8F2"/>
<rect x="480.854" y="107.88" width="8.49479" height="8.49479" fill="#F8F8F2"/>
<rect x="489.349" y="107.88" width="8.49479" height="8.49479" fill="#F8F8F2"/>
<rect x="489.349" y="116.375" width="8.49479" height="8.49479" fill="#F8F8F2"/>
<rect x="498" y="116" width="8" height="17" fill="#F8F8F2"/>
<rect x="497.844" y="48.4165" width="8.49479" height="59.4635" fill="#F8F8F2"/>
<rect x="250.281" y="48.4165" width="264.552" height="48.5417" fill="#F8F8F2"/>
<rect x="250.281" y="19.4165" width="264.552" height="48.5417" fill="#F8F8F2"/>
<rect x="250.281" y="56.9116" width="8.49479" height="42.474" fill="#F8F8F2"/>
<rect x="74" y="48" width="134" height="49" fill="#F8F8F2"/>
<rect x="74" y="19" width="134" height="49" fill="#F8F8F2"/>
<rect x="258.775" y="38.7085" width="247.562" height="67.9583" fill="#F8F8F2"/>
<rect x="258.775" y="9.7085" width="247.562" height="67.9583" fill="#F8F8F2"/>
<rect x="86.4531" y="38.7085" width="356.781" height="67.9583" fill="#F8F8F2"/>
<rect x="86.4531" y="9.7085" width="356.781" height="67.9583" fill="#F8F8F2"/>
<rect x="489.349" y="99.3853" width="8.49479" height="8.49479" fill="#F8F8F2"/>
<rect x="489.349" y="90.8906" width="8.49479" height="8.49479" fill="#F8F8F2"/>
<rect x="489.349" y="82.396" width="8.49479" height="8.49479" fill="#F8F8F2"/>
<rect x="489.349" y="73.9009" width="8.49479" height="8.49479" fill="#F8F8F2"/>
<rect x="489.349" y="65.4062" width="8.49479" height="8.49479" fill="#F8F8F2"/>
<rect x="489.349" y="56.9116" width="8.49479" height="8.49479" fill="#F8F8F2"/>
<rect x="480.854" y="39.9219" width="16.9896" height="84.9479" fill="#F8F8F2"/>
<rect x="489" y="29" width="9" height="96" fill="#F8F8F2"/>
<rect x="489" width="9" height="96" fill="#F8F8F2"/>
<rect x="506.339" y="124.87" width="8.49479" height="8.49479" fill="#F8F8F2"/>
<rect x="506" y="125" width="9" height="17" fill="#F8F8F2"/>
<rect x="481" y="116" width="25" height="9" fill="#F8F8F2"/>
<rect x="498" y="125" width="17" height="8" fill="#F8F8F2"/>
<rect x="552.043" y="158.849" width="18.9492" height="55.1249" fill="#FF79C6"/>
<rect x="531.026" y="171.252" width="39.9656" height="34.7976" fill="#FF79C6"/>
<rect x="568.581" y="177.454" width="27.2179" height="25.1507" fill="#FF79C6"/>
<rect x="537.229" y="165.05" width="46.1671" height="13.4367" fill="#FF79C6"/>
<rect x="518.624" y="184" width="19.2937" height="18.6047" fill="#FF79C6"/>
<rect x="595.109" y="192.958" width="6.89062" height="26.5289" fill="#FF79C6"/>
<rect x="589.253" y="196.058" width="12.7476" height="19.6383" fill="#FF79C6"/>
<rect x="514.834" y="210.558" width="5.90958" height="35.4575" fill="#FF79C6"/>
<rect x="577.096" y="233.562" width="6.22616" height="6.22616" fill="#FF79C6"/>
<rect x="570.869" y="233.562" width="6.22616" height="6.22616" fill="#FF79C6"/>
<rect x="570.975" y="219.422" width="5.90958" height="26.5931" fill="#FF79C6"/>
<rect x="564.326" y="220.899" width="19.2061" height="19.2061" fill="#FF79C6"/>
<rect x="577.096" y="227.337" width="6.22616" height="6.22616" fill="#FF79C6"/>
<rect x="583.321" y="227.337" width="6.22616" height="6.22616" fill="#FF79C6"/>
<rect x="595.774" y="196.206" width="6.22616" height="37.357" fill="#FF79C6"/>
<rect x="589.548" y="227.337" width="6.22616" height="6.22616" fill="#FF79C6"/>
<rect x="595.774" y="233.562" width="6.22616" height="6.22616" fill="#FF79C6"/>
<rect x="596.091" y="220.899" width="5.90958" height="25.1157" fill="#FF79C6"/>
<rect x="589.548" y="189.98" width="6.22616" height="6.22616" fill="#6272A4"/>
<rect x="555.927" y="189.98" width="6.22616" height="6.22616" fill="#6272A4"/>
<rect x="531.026" y="171.252" width="58.5702" height="7.92421" fill="#FF79C6"/>
<rect x="577.096" y="171.301" width="6.22616" height="6.22616" fill="#FF79C6"/>
<rect x="577.096" y="165.075" width="6.22616" height="6.22616" fill="#FF79C6"/>
<rect x="570.869" y="177.527" width="6.22616" height="6.22616" fill="#FF79C6"/>
<rect x="562.035" y="178.143" width="8.9578" height="22.739" fill="#FF79C6"/>
<rect x="555.927" y="196.206" width="21.169" height="6.22616" fill="#FF79C6"/>
<rect x="555.927" y="177.527" width="14.9428" height="6.22616" fill="#FF79C6"/>
<rect x="570.869" y="165.075" width="6.22616" height="12.4523" fill="#FF79C6"/>
<rect x="564.644" y="165.075" width="6.22616" height="12.4523" fill="#FF79C6"/>
<rect x="558.417" y="165.075" width="6.22616" height="12.4523" fill="#FF79C6"/>
<rect x="558.589" y="158.849" width="6.20155" height="17.9156" fill="#FF79C6"/>
<rect x="564.791" y="158.849" width="6.20155" height="17.9156" fill="#FF79C6"/>
<rect x="552.191" y="165.075" width="6.22616" height="12.4523" fill="#FF79C6"/>
<rect x="545.965" y="165.075" width="6.22616" height="12.4523" fill="#FF79C6"/>
<rect x="589.548" y="183.754" width="6.22616" height="6.22616" fill="#6272A4"/>
<rect x="555.927" y="183.754" width="6.22616" height="6.22616" fill="#6272A4"/>
<rect x="583.321" y="183.754" width="6.22616" height="6.22616" fill="#6272A4"/>
<rect x="549.7" y="183.754" width="6.22616" height="6.22616" fill="#6272A4"/>
<rect x="583.321" y="177.527" width="6.22616" height="6.22616" fill="#F8F8F2"/>
<rect x="549.7" y="177.527" width="6.22616" height="6.22616" fill="#F8F8F2"/>
<rect x="577.096" y="177.527" width="6.22616" height="6.22616" fill="#F8F8F2"/>
<rect x="543.43" y="177.454" width="12.4031" height="6.20155" fill="#F8F8F2"/>
<rect x="577.194" y="196.058" width="12.4031" height="6.20155" fill="#F8F8F2"/>
<rect x="543.43" y="196.058" width="12.4031" height="6.20155" fill="#F8F8F2"/>
<rect x="577.194" y="196.058" width="12.4031" height="6.20155" fill="#F8F8F2"/>
<rect x="546.53" y="196.058" width="9.30233" height="6.20155" fill="#F8F8F2"/>
<rect x="570.992" y="183.656" width="6.20155" height="12.4031" fill="#F8F8F2"/>
<rect x="537.229" y="183.656" width="6.20155" height="12.4031" fill="#F8F8F2"/>
<rect x="583.396" y="183.656" width="12.4031" height="12.4031" fill="#6272A4"/>
<rect x="549.632" y="183.656" width="12.4031" height="12.4031" fill="#6272A4"/>
<rect x="543.475" y="189.98" width="6.22616" height="6.22616" fill="#6272A4" fill-opacity="0.5"/>
<rect x="577.194" y="183.656" width="6.20155" height="12.4031" fill="#6272A4" fill-opacity="0.5"/>
<rect x="543.475" y="183.754" width="6.22616" height="6.22616" fill="#6272A4" fill-opacity="0.5"/>
<rect x="589.442" y="220.899" width="12.5579" height="19.2061" fill="#FF79C6"/>
<rect x="514.834" y="233.562" width="6.22616" height="6.22616" fill="#FF79C6"/>
<rect x="514.834" y="212.774" width="12.5579" height="27.3318" fill="#FF79C6"/>
<rect x="514.834" y="221.11" width="12.4523" height="12.4523" fill="#FF79C6"/>
<rect x="514.834" y="208.659" width="12.4523" height="12.4523" fill="#FF79C6"/>
<rect x="514.834" y="196.206" width="28.6404" height="12.4523" fill="#FF79C6"/>
<rect x="524.795" y="177.527" width="12.4523" height="12.4523" fill="#FF79C6"/>
<rect x="527.286" y="208.659" width="12.4523" height="12.4523" fill="#FF79C6"/>
<rect x="527.286" y="221.11" width="12.4523" height="12.4523" fill="#FF79C6"/>
<rect x="539.738" y="233.562" width="12.4523" height="12.4523" fill="#FF79C6"/>
<rect x="545.965" y="227.337" width="12.4523" height="12.4523" fill="#FF79C6"/>
<rect x="552.191" y="221.11" width="12.4523" height="12.4523" fill="#FF79C6"/>
<rect x="564.644" y="221.11" width="31.1308" height="12.4523" fill="#FF79C6"/>
<rect x="533.512" y="227.337" width="12.4523" height="12.4523" fill="#FF79C6"/>
<rect x="539.738" y="221.11" width="12.4523" height="12.4523" fill="#FF79C6"/>
<rect x="514.834" y="202.432" width="87.1663" height="31.0253" fill="#FF79C6"/>
<path d="M159.828 17.5938V34H156.547V17.5938H152.328V15.25H164.047V17.5938H159.828ZM166.215 15.25H169.496V34H166.215V15.25ZM173.129 25.5332C173.129 24.6738 173.021 24.0586 172.807 23.6875C172.611 23.2969 172.221 23.1016 171.635 23.1016C171.127 23.1016 170.59 23.2676 170.023 23.5996C169.457 23.9121 168.92 24.3809 168.412 25.0059L167.123 23.8926C167.787 22.916 168.588 22.1543 169.525 21.6074C170.482 21.041 171.527 20.7578 172.66 20.7578C173.871 20.7578 174.799 21.0996 175.443 21.7832C176.088 22.4473 176.41 23.6191 176.41 25.2988V34H173.129V25.5332ZM185.961 25.6504C185.961 24.752 185.785 24.1367 185.434 23.8047C185.102 23.4531 184.496 23.2773 183.617 23.2773C183.031 23.2773 182.436 23.3359 181.83 23.4531C181.244 23.5703 180.648 23.7266 180.043 23.9219L179.516 21.6074C181.156 21.002 182.758 20.6992 184.32 20.6992C185.961 20.6992 187.191 21.0703 188.012 21.8125C188.832 22.5352 189.242 23.6777 189.242 25.2402V32.125L189.301 34H186.518L185.961 31.5098V25.6504ZM187.807 27.9355C185.834 27.9355 184.438 28.1406 183.617 28.5508C182.797 28.9414 182.387 29.5078 182.387 30.25C182.387 30.7188 182.514 31.0898 182.768 31.3633C183.021 31.6367 183.412 31.7734 183.939 31.7734C184.389 31.7734 184.867 31.666 185.375 31.4512C185.883 31.2168 186.527 30.8262 187.309 30.2793L187.426 30.1914L188.217 31.8027C188.197 31.8223 188.168 31.8418 188.129 31.8613C187.172 32.6035 186.303 33.1699 185.521 33.5605C184.74 33.9316 183.852 34.1172 182.855 34.1172C181.684 34.1172 180.746 33.7949 180.043 33.1504C179.34 32.5059 178.988 31.5879 178.988 30.3965C178.988 28.834 179.672 27.7012 181.039 26.998C182.426 26.2754 184.682 25.9141 187.807 25.9141V27.9355ZM192.465 22.7793L192.406 20.875H195.277L195.746 23.5703V34H192.465V22.7793ZM199.379 25.5332C199.379 24.6738 199.271 24.0586 199.057 23.6875C198.861 23.2969 198.471 23.1016 197.885 23.1016C197.377 23.1016 196.84 23.2676 196.273 23.5996C195.707 23.9121 195.17 24.3809 194.662 25.0059L193.373 23.8926C194.037 22.916 194.838 22.1543 195.775 21.6074C196.732 21.041 197.777 20.7578 198.91 20.7578C200.121 20.7578 201.049 21.0996 201.693 21.7832C202.338 22.4473 202.66 23.6191 202.66 25.2988V34H199.379V25.5332ZM210.512 28.2578H208.871V34H205.59V15.25H208.871V25.8848H210.512V28.2578ZM216.869 20.875L211.215 27.6426V26.3535L217.104 34H213.148L208.051 27.0273L212.914 20.875H216.869ZM241.42 33.0039C241.029 35.0352 240.189 36.5977 238.9 37.6914C237.631 38.7852 235.785 39.498 233.363 39.8301L232.836 37.5742C234.145 37.3008 235.16 36.9199 235.883 36.4316C236.625 35.9629 237.162 35.4062 237.494 34.7617C237.846 34.1172 238.109 33.3164 238.285 32.3594C238.5 31.1094 238.637 29.6641 238.695 28.0234C238.773 26.3633 238.812 23.9805 238.812 20.875H242.094C242.094 24.2734 242.035 26.8516 241.918 28.6094C241.82 30.3477 241.654 31.8125 241.42 33.0039ZM234.271 20.875C234.564 24.0391 234.877 26.3145 235.209 27.7012C235.541 29.0684 236.029 30.0352 236.674 30.6016C237.318 31.1484 238.344 31.5391 239.75 31.7734L239.428 34.0586C237.24 33.8438 235.6 33.2773 234.506 32.3594C233.432 31.4414 232.67 30.1523 232.221 28.4922C231.791 26.8125 231.391 24.2734 231.02 20.875H234.271ZM250.062 34.3809C248.148 34.3809 246.742 33.7461 245.844 32.4766C244.945 31.207 244.496 29.5273 244.496 27.4375C244.496 25.3477 244.945 23.668 245.844 22.3984C246.742 21.1289 248.148 20.4941 250.062 20.4941C251.977 20.4941 253.383 21.1289 254.281 22.3984C255.18 23.668 255.629 25.3477 255.629 27.4375C255.629 29.5273 255.18 31.207 254.281 32.4766C253.383 33.7461 251.977 34.3809 250.062 34.3809ZM250.062 31.9785C250.824 31.9785 251.361 31.6465 251.674 30.9824C252.006 30.3184 252.172 29.1367 252.172 27.4375C252.172 25.7578 252.006 24.5859 251.674 23.9219C251.361 23.2383 250.824 22.8965 250.062 22.8965C249.301 22.8965 248.754 23.2383 248.422 23.9219C248.109 24.5859 247.953 25.7578 247.953 27.4375C247.953 29.1367 248.109 30.3184 248.422 30.9824C248.754 31.6465 249.301 31.9785 250.062 31.9785ZM261.84 34.1172C260.629 34.1172 259.701 33.7852 259.057 33.1211C258.412 32.457 258.09 31.4316 258.09 30.0449V20.875H261.371V29.6934C261.371 30.4551 261.488 30.9922 261.723 31.3047C261.977 31.6172 262.357 31.7734 262.865 31.7734C263.373 31.7734 263.91 31.6172 264.477 31.3047C265.043 30.9727 265.58 30.4941 266.088 29.8691L267.377 30.9824C266.713 31.959 265.902 32.7305 264.945 33.2969C264.008 33.8438 262.973 34.1172 261.84 34.1172ZM265.004 31.3047V20.875H268.285V32.0957L268.344 34H265.473L265.004 31.3047ZM289.057 34.2344C288.256 34.2344 287.445 34.1465 286.625 33.9707C285.824 33.7949 285.092 33.5605 284.428 33.2676L285.014 31.2168C286.283 31.627 287.523 31.832 288.734 31.832C289.652 31.832 290.287 31.7148 290.639 31.4805C290.99 31.2266 291.166 30.9141 291.166 30.543C291.166 30.1133 290.971 29.791 290.58 29.5762C290.209 29.3613 289.604 29.127 288.764 28.873C287.885 28.6191 287.172 28.3652 286.625 28.1113C286.078 27.8574 285.6 27.4668 285.189 26.9395C284.799 26.3926 284.604 25.6797 284.604 24.8008C284.604 23.9023 284.809 23.1406 285.219 22.5156C285.648 21.8906 286.254 21.4219 287.035 21.1094C287.816 20.7969 288.744 20.6406 289.818 20.6406C291.146 20.6406 292.484 20.8555 293.832 21.2852L293.334 23.541C292.123 23.209 291.02 23.043 290.023 23.043C289.262 23.043 288.695 23.1699 288.324 23.4238C287.953 23.6582 287.768 23.9609 287.768 24.332C287.768 24.7812 287.953 25.1133 288.324 25.3281C288.715 25.5234 289.33 25.7383 290.17 25.9727C291.029 26.207 291.732 26.4512 292.279 26.7051C292.846 26.9395 293.324 27.3301 293.715 27.877C294.125 28.4238 294.33 29.1562 294.33 30.0742C294.33 31.0508 294.096 31.8516 293.627 32.4766C293.178 33.082 292.553 33.5312 291.752 33.8242C290.971 34.0977 290.072 34.2344 289.057 34.2344ZM302.562 34.3809C300.648 34.3809 299.242 33.7461 298.344 32.4766C297.445 31.207 296.996 29.5273 296.996 27.4375C296.996 25.3477 297.445 23.668 298.344 22.3984C299.242 21.1289 300.648 20.4941 302.562 20.4941C304.477 20.4941 305.883 21.1289 306.781 22.3984C307.68 23.668 308.129 25.3477 308.129 27.4375C308.129 29.5273 307.68 31.207 306.781 32.4766C305.883 33.7461 304.477 34.3809 302.562 34.3809ZM302.562 31.9785C303.324 31.9785 303.861 31.6465 304.174 30.9824C304.506 30.3184 304.672 29.1367 304.672 27.4375C304.672 25.7578 304.506 24.5859 304.174 23.9219C303.861 23.2383 303.324 22.8965 302.562 22.8965C301.801 22.8965 301.254 23.2383 300.922 23.9219C300.609 24.5859 300.453 25.7578 300.453 27.4375C300.453 29.1367 300.609 30.3184 300.922 30.9824C301.254 31.6465 301.801 31.9785 302.562 31.9785ZM323.07 22.7793L323.012 20.875H325.209L325.824 22.75V34H323.07V22.7793ZM327.582 24.625C327.582 24.1172 327.514 23.7461 327.377 23.5117C327.26 23.2578 327.045 23.1309 326.732 23.1309C326.537 23.1309 326.332 23.1895 326.117 23.3066C325.922 23.4043 325.756 23.5508 325.619 23.7461L325.268 22.1055C325.424 21.7344 325.688 21.4219 326.059 21.168C326.449 20.9141 326.908 20.7871 327.436 20.7871C328.061 20.7871 328.578 20.9727 328.988 21.3438C329.398 21.6953 329.652 22.1836 329.75 22.8086H330.043V34H327.582V24.625ZM331.801 24.625C331.801 24.1172 331.732 23.7461 331.596 23.5117C331.459 23.2773 331.234 23.1602 330.922 23.1602C330.746 23.1602 330.551 23.209 330.336 23.3066C330.141 23.4043 329.965 23.5508 329.809 23.7461L329.047 21.9297C329.34 21.5586 329.691 21.2852 330.102 21.1094C330.531 20.9141 331.02 20.8164 331.566 20.8164C332.445 20.8164 333.158 21.0996 333.705 21.666C334.271 22.2129 334.555 23.0527 334.555 24.1855V34H331.801V24.625ZM340.59 34.1172C339.379 34.1172 338.451 33.7852 337.807 33.1211C337.162 32.457 336.84 31.4316 336.84 30.0449V20.875H340.121V29.6934C340.121 30.4551 340.238 30.9922 340.473 31.3047C340.727 31.6172 341.107 31.7734 341.615 31.7734C342.123 31.7734 342.66 31.6172 343.227 31.3047C343.793 30.9727 344.33 30.4941 344.838 29.8691L346.127 30.9824C345.463 31.959 344.652 32.7305 343.695 33.2969C342.758 33.8438 341.723 34.1172 340.59 34.1172ZM343.754 31.3047V20.875H347.035V32.0957L347.094 34H344.223L343.754 31.3047ZM359.076 23.541C358.256 23.2676 357.377 23.1309 356.439 23.1309C355.658 23.1309 355.043 23.2676 354.594 23.541C354.164 23.8145 353.852 24.2637 353.656 24.8887C353.461 25.4941 353.363 26.3438 353.363 27.4375C353.363 28.5312 353.461 29.3906 353.656 30.0156C353.852 30.6211 354.164 31.0605 354.594 31.334C355.043 31.6074 355.658 31.7441 356.439 31.7441C357.201 31.7441 358.08 31.6074 359.076 31.334L359.574 33.502C358.422 33.9707 357.162 34.2051 355.795 34.2051C353.666 34.2051 352.162 33.5996 351.283 32.3887C350.404 31.1777 349.965 29.5273 349.965 27.4375C349.965 25.3477 350.404 23.6973 351.283 22.4863C352.162 21.2754 353.666 20.6699 355.795 20.6699C357.162 20.6699 358.422 20.9043 359.574 21.373L359.076 23.541ZM363.09 15.25H366.371V34H363.09V15.25ZM370.004 25.5332C370.004 24.6738 369.896 24.0586 369.682 23.6875C369.486 23.2969 369.096 23.1016 368.51 23.1016C368.002 23.1016 367.465 23.2676 366.898 23.5996C366.332 23.9121 365.795 24.3809 365.287 25.0059L363.998 23.8926C364.662 22.916 365.463 22.1543 366.4 21.6074C367.357 21.041 368.402 20.7578 369.535 20.7578C370.746 20.7578 371.674 21.0996 372.318 21.7832C372.963 22.4473 373.285 23.6191 373.285 25.2988V34H370.004V25.5332ZM389.604 23.2773V20.875H391.801V19.2344C391.801 17.8086 392.201 16.7539 393.002 16.0703C393.803 15.3672 394.906 15.0156 396.312 15.0156C396.82 15.0156 397.406 15.0645 398.07 15.1621C398.734 15.2402 399.311 15.3379 399.799 15.4551L399.447 17.5645C398.627 17.4277 397.855 17.3594 397.133 17.3594C396.391 17.3594 395.863 17.5254 395.551 17.8574C395.238 18.1699 395.082 18.6094 395.082 19.1758V20.875H398.715V23.3359H395.082V34H391.801V23.3652L389.604 23.2773ZM407.562 34.3809C405.648 34.3809 404.242 33.7461 403.344 32.4766C402.445 31.207 401.996 29.5273 401.996 27.4375C401.996 25.3477 402.445 23.668 403.344 22.3984C404.242 21.1289 405.648 20.4941 407.562 20.4941C409.477 20.4941 410.883 21.1289 411.781 22.3984C412.68 23.668 413.129 25.3477 413.129 27.4375C413.129 29.5273 412.68 31.207 411.781 32.4766C410.883 33.7461 409.477 34.3809 407.562 34.3809ZM407.562 31.9785C408.324 31.9785 408.861 31.6465 409.174 30.9824C409.506 30.3184 409.672 29.1367 409.672 27.4375C409.672 25.7578 409.506 24.5859 409.174 23.9219C408.861 23.2383 408.324 22.8965 407.562 22.8965C406.801 22.8965 406.254 23.2383 405.922 23.9219C405.609 24.5859 405.453 25.7578 405.453 27.4375C405.453 29.1367 405.609 30.3184 405.922 30.9824C406.254 31.6465 406.801 31.9785 407.562 31.9785ZM416.908 22.7793L416.85 20.875H419.721L420.189 23.7754V34H416.908V22.7793ZM418.139 24.8887C418.783 23.5996 419.555 22.5938 420.453 21.8711C421.352 21.1289 422.396 20.7578 423.588 20.7578C424.154 20.7578 424.77 20.8359 425.434 20.9922L424.906 23.6875C424.203 23.5703 423.617 23.5117 423.148 23.5117C422.289 23.5117 421.566 23.707 420.98 24.0977C420.414 24.4883 419.906 25.084 419.457 25.8848L418.139 24.8887ZM108.471 52.7793L108.412 50.875H111.283L111.752 53.7754V64H108.471V52.7793ZM109.701 54.8887C110.346 53.5996 111.117 52.5938 112.016 51.8711C112.914 51.1289 113.959 50.7578 115.15 50.7578C115.717 50.7578 116.332 50.8359 116.996 50.9922L116.469 53.6875C115.766 53.5703 115.18 53.5117 114.711 53.5117C113.852 53.5117 113.129 53.707 112.543 54.0977C111.977 54.4883 111.469 55.084 111.02 55.8848L109.701 54.8887ZM119.984 57.4375C119.984 55.3477 120.404 53.668 121.244 52.3984C122.104 51.1289 123.48 50.4941 125.375 50.4941C126.703 50.4941 127.797 50.8457 128.656 51.5488C129.516 52.2324 130.102 53.1797 130.414 54.3906C130.746 55.6016 130.814 56.9688 130.619 58.4922H121.801V56.207H128.48L127.309 57.4375C127.426 55.9141 127.309 54.7715 126.957 54.0098C126.625 53.2285 126.098 52.8379 125.375 52.8379C124.672 52.8379 124.164 53.1895 123.852 53.8926C123.539 54.5957 123.383 55.7773 123.383 57.4375C123.383 58.5898 123.48 59.498 123.676 60.1621C123.871 60.8262 124.184 61.3047 124.613 61.5977C125.043 61.8906 125.629 62.0371 126.371 62.0371C126.82 62.0371 127.318 61.9688 127.865 61.832C128.432 61.6953 129.037 61.5195 129.682 61.3047L130.209 63.4141C128.646 64.0586 127.211 64.3809 125.902 64.3809C123.773 64.3809 122.25 63.7559 121.332 62.5059C120.434 61.2559 119.984 59.5664 119.984 57.4375ZM140.023 55.6504C140.023 54.752 139.848 54.1367 139.496 53.8047C139.164 53.4531 138.559 53.2773 137.68 53.2773C137.094 53.2773 136.498 53.3359 135.893 53.4531C135.307 53.5703 134.711 53.7266 134.105 53.9219L133.578 51.6074C135.219 51.002 136.82 50.6992 138.383 50.6992C140.023 50.6992 141.254 51.0703 142.074 51.8125C142.895 52.5352 143.305 53.6777 143.305 55.2402V62.125L143.363 64H140.58L140.023 61.5098V55.6504ZM141.869 57.9355C139.896 57.9355 138.5 58.1406 137.68 58.5508C136.859 58.9414 136.449 59.5078 136.449 60.25C136.449 60.7188 136.576 61.0898 136.83 61.3633C137.084 61.6367 137.475 61.7734 138.002 61.7734C138.451 61.7734 138.93 61.666 139.438 61.4512C139.945 61.2168 140.59 60.8262 141.371 60.2793L141.488 60.1914L142.279 61.8027C142.26 61.8223 142.23 61.8418 142.191 61.8613C141.234 62.6035 140.365 63.1699 139.584 63.5605C138.803 63.9316 137.914 64.1172 136.918 64.1172C135.746 64.1172 134.809 63.7949 134.105 63.1504C133.402 62.5059 133.051 61.5879 133.051 60.3965C133.051 58.834 133.734 57.7012 135.102 56.998C136.488 56.2754 138.744 55.9141 141.869 55.9141V57.9355ZM153.734 61.3047H153.441V45.25H156.723V62.0957L156.781 64H154.203L153.734 61.3047ZM150.922 50.6406C151.938 50.6406 152.855 50.9336 153.676 51.5195C154.516 52.1055 155.248 53.1699 155.873 54.7129L154.174 55.4453C153.842 54.6641 153.441 54.0586 152.973 53.6289C152.504 53.1992 151.986 52.9844 151.42 52.9844C150.99 52.9844 150.629 53.1211 150.336 53.3945C150.062 53.668 149.857 54.127 149.721 54.7715C149.584 55.416 149.516 56.3047 149.516 57.4375C149.516 58.5508 149.584 59.4297 149.721 60.0742C149.857 60.7188 150.062 61.1777 150.336 61.4512C150.629 61.7051 150.99 61.832 151.42 61.832C151.986 61.832 152.504 61.627 152.973 61.2168C153.441 60.7871 153.842 60.1914 154.174 59.4297L155.551 59.9863C154.926 61.5488 154.213 62.6523 153.412 63.2969C152.631 63.9219 151.732 64.2344 150.717 64.2344C149.35 64.2344 148.227 63.6973 147.348 62.623C146.488 61.5293 146.059 59.8008 146.059 57.4375C146.059 55.8164 146.264 54.5078 146.674 53.5117C147.084 52.4961 147.65 51.7637 148.373 51.3145C149.096 50.8652 149.945 50.6406 150.922 50.6406ZM163.578 53.2773L159.945 53.043V50.875H166.859V64H163.578V53.2773ZM163.08 46.7441C163.08 46.1191 163.275 45.6309 163.666 45.2793C164.057 44.9082 164.535 44.7227 165.102 44.7227C165.668 44.7227 166.146 44.9082 166.537 45.2793C166.928 45.6309 167.123 46.1191 167.123 46.7441C167.123 47.3887 166.928 47.8867 166.537 48.2383C166.146 48.5898 165.668 48.7656 165.102 48.7656C164.535 48.7656 164.057 48.5898 163.666 48.2383C163.275 47.8867 163.08 47.3887 163.08 46.7441ZM172.777 52.7793L172.719 50.875H175.59L176.059 53.5703V64H172.777V52.7793ZM179.691 55.5332C179.691 54.6738 179.584 54.0586 179.369 53.6875C179.174 53.2969 178.783 53.1016 178.197 53.1016C177.689 53.1016 177.152 53.2676 176.586 53.5996C176.02 53.9121 175.482 54.3809 174.975 55.0059L173.686 53.8926C174.35 52.916 175.15 52.1543 176.088 51.6074C177.045 51.041 178.09 50.7578 179.223 50.7578C180.434 50.7578 181.361 51.0996 182.006 51.7832C182.65 52.4473 182.973 53.6191 182.973 55.2988V64H179.691V55.5332ZM190.854 69.7422C190.268 69.7422 189.594 69.6934 188.832 69.5957C188.09 69.5176 187.387 69.4004 186.723 69.2441L187.045 67.0762C188.451 67.291 189.525 67.3984 190.268 67.3984C191.244 67.3984 191.908 67.2422 192.26 66.9297C192.611 66.6367 192.787 66.1387 192.787 65.4355V53.5703H193.08L193.549 50.875H196.127L196.068 52.75V65.0547C196.068 66.6953 195.609 67.8867 194.691 68.6289C193.773 69.3711 192.494 69.7422 190.854 69.7422ZM190.062 64.2344C188.695 64.2344 187.582 63.6973 186.723 62.623C185.863 61.5293 185.434 59.8008 185.434 57.4375C185.434 55.8164 185.639 54.5078 186.049 53.5117C186.459 52.4961 187.025 51.7637 187.748 51.3145C188.471 50.8652 189.311 50.6406 190.268 50.6406C191.283 50.6406 192.201 50.9336 193.021 51.5195C193.842 52.1055 194.564 53.1699 195.189 54.7129L193.49 55.4453C193.158 54.6641 192.758 54.0586 192.289 53.6289C191.82 53.1992 191.312 52.9844 190.766 52.9844C190.336 52.9844 189.984 53.1211 189.711 53.3945C189.438 53.668 189.232 54.1367 189.096 54.8008C188.959 55.4453 188.891 56.3242 188.891 57.4375C188.891 58.5508 188.959 59.4395 189.096 60.1035C189.232 60.748 189.438 61.207 189.711 61.4805C189.984 61.7539 190.336 61.8906 190.766 61.8906C191.312 61.8906 191.82 61.6758 192.289 61.2461C192.758 60.8164 193.158 60.2109 193.49 59.4297L194.867 59.9863C194.242 61.5488 193.529 62.6523 192.729 63.2969C191.947 63.9219 191.059 64.2344 190.062 64.2344ZM216.898 47.125V50.875H221.117V53.2188H216.898V59.8984C216.898 60.5039 217.055 60.9922 217.367 61.3633C217.68 61.7148 218.227 61.8906 219.008 61.8906C219.73 61.8906 220.531 61.8223 221.41 61.6855L221.732 63.8828C220.502 64.1172 219.34 64.2344 218.246 64.2344C216.84 64.2344 215.717 63.873 214.877 63.1504C214.037 62.4277 213.617 61.3242 213.617 59.8398V53.248L211.42 53.1602V50.875H213.617V47.125H216.898ZM225.277 45.25H228.559V64H225.277V45.25ZM232.191 55.5332C232.191 54.6738 232.084 54.0586 231.869 53.6875C231.674 53.2969 231.283 53.1016 230.697 53.1016C230.189 53.1016 229.652 53.2676 229.086 53.5996C228.52 53.9121 227.982 54.3809 227.475 55.0059L226.186 53.8926C226.85 52.916 227.65 52.1543 228.588 51.6074C229.545 51.041 230.59 50.7578 231.723 50.7578C232.934 50.7578 233.861 51.0996 234.506 51.7832C235.15 52.4473 235.473 53.6191 235.473 55.2988V64H232.191V55.5332ZM242.328 53.2773L238.695 53.043V50.875H245.609V64H242.328V53.2773ZM241.83 46.7441C241.83 46.1191 242.025 45.6309 242.416 45.2793C242.807 44.9082 243.285 44.7227 243.852 44.7227C244.418 44.7227 244.896 44.9082 245.287 45.2793C245.678 45.6309 245.873 46.1191 245.873 46.7441C245.873 47.3887 245.678 47.8867 245.287 48.2383C244.896 48.5898 244.418 48.7656 243.852 48.7656C243.285 48.7656 242.807 48.5898 242.416 48.2383C242.025 47.8867 241.83 47.3887 241.83 46.7441ZM256.244 64.2344C255.443 64.2344 254.633 64.1465 253.812 63.9707C253.012 63.7949 252.279 63.5605 251.615 63.2676L252.201 61.2168C253.471 61.627 254.711 61.832 255.922 61.832C256.84 61.832 257.475 61.7148 257.826 61.4805C258.178 61.2266 258.354 60.9141 258.354 60.543C258.354 60.1133 258.158 59.791 257.768 59.5762C257.396 59.3613 256.791 59.127 255.951 58.873C255.072 58.6191 254.359 58.3652 253.812 58.1113C253.266 57.8574 252.787 57.4668 252.377 56.9395C251.986 56.3926 251.791 55.6797 251.791 54.8008C251.791 53.9023 251.996 53.1406 252.406 52.5156C252.836 51.8906 253.441 51.4219 254.223 51.1094C255.004 50.7969 255.932 50.6406 257.006 50.6406C258.334 50.6406 259.672 50.8555 261.02 51.2852L260.521 53.541C259.311 53.209 258.207 53.043 257.211 53.043C256.449 53.043 255.883 53.1699 255.512 53.4238C255.141 53.6582 254.955 53.9609 254.955 54.332C254.955 54.7812 255.141 55.1133 255.512 55.3281C255.902 55.5234 256.518 55.7383 257.357 55.9727C258.217 56.207 258.92 56.4512 259.467 56.7051C260.033 56.9395 260.512 57.3301 260.902 57.877C261.312 58.4238 261.518 59.1562 261.518 60.0742C261.518 61.0508 261.283 61.8516 260.814 62.4766C260.365 63.082 259.74 63.5312 258.939 63.8242C258.158 64.0977 257.26 64.2344 256.244 64.2344ZM278.041 53.2773V50.875H280.238V49.2344C280.238 47.8086 280.639 46.7539 281.439 46.0703C282.24 45.3672 283.344 45.0156 284.75 45.0156C285.258 45.0156 285.844 45.0645 286.508 45.1621C287.172 45.2402 287.748 45.3379 288.236 45.4551L287.885 47.5645C287.064 47.4277 286.293 47.3594 285.57 47.3594C284.828 47.3594 284.301 47.5254 283.988 47.8574C283.676 48.1699 283.52 48.6094 283.52 49.1758V50.875H287.152V53.3359H283.52V64H280.238V53.3652L278.041 53.2773ZM297.523 55.6504C297.523 54.752 297.348 54.1367 296.996 53.8047C296.664 53.4531 296.059 53.2773 295.18 53.2773C294.594 53.2773 293.998 53.3359 293.393 53.4531C292.807 53.5703 292.211 53.7266 291.605 53.9219L291.078 51.6074C292.719 51.002 294.32 50.6992 295.883 50.6992C297.523 50.6992 298.754 51.0703 299.574 51.8125C300.395 52.5352 300.805 53.6777 300.805 55.2402V62.125L300.863 64H298.08L297.523 61.5098V55.6504ZM299.369 57.9355C297.396 57.9355 296 58.1406 295.18 58.5508C294.359 58.9414 293.949 59.5078 293.949 60.25C293.949 60.7188 294.076 61.0898 294.33 61.3633C294.584 61.6367 294.975 61.7734 295.502 61.7734C295.951 61.7734 296.43 61.666 296.938 61.4512C297.445 61.2168 298.09 60.8262 298.871 60.2793L298.988 60.1914L299.779 61.8027C299.76 61.8223 299.73 61.8418 299.691 61.8613C298.734 62.6035 297.865 63.1699 297.084 63.5605C296.303 63.9316 295.414 64.1172 294.418 64.1172C293.246 64.1172 292.309 63.7949 291.605 63.1504C290.902 62.5059 290.551 61.5879 290.551 60.3965C290.551 58.834 291.234 57.7012 292.602 56.998C293.988 56.2754 296.244 55.9141 299.369 55.9141V57.9355ZM305.346 52.7793L305.287 50.875H308.158L308.627 53.7754V64H305.346V52.7793ZM306.576 54.8887C307.221 53.5996 307.992 52.5938 308.891 51.8711C309.789 51.1289 310.834 50.7578 312.025 50.7578C312.592 50.7578 313.207 50.8359 313.871 50.9922L313.344 53.6875C312.641 53.5703 312.055 53.5117 311.586 53.5117C310.727 53.5117 310.004 53.707 309.418 54.0977C308.852 54.4883 308.344 55.084 307.895 55.8848L306.576 54.8887ZM320.316 45.25H324.184L323.715 57.7891H320.785L320.316 45.25ZM322.25 64.293C321.547 64.293 320.961 64.1074 320.492 63.7363C320.023 63.3457 319.789 62.8086 319.789 62.125C319.789 61.4609 320.023 60.9336 320.492 60.543C320.961 60.1523 321.547 59.957 322.25 59.957C322.953 59.957 323.539 60.1523 324.008 60.543C324.477 60.9336 324.711 61.4609 324.711 62.125C324.711 62.8086 324.477 63.3457 324.008 63.7363C323.539 64.1074 322.953 64.293 322.25 64.293ZM350.053 64.2637C348.412 64.2637 347.113 63.9512 346.156 63.3262C345.199 62.7012 344.496 61.6953 344.047 60.3086C343.617 58.9219 343.402 57.0371 343.402 54.6543C343.402 52.2715 343.617 50.3867 344.047 49C344.496 47.6133 345.199 46.6074 346.156 45.9824C347.113 45.3574 348.412 45.0449 350.053 45.0449C351.205 45.0449 352.289 45.1914 353.305 45.4844L352.895 47.6523C352.133 47.4766 351.381 47.3887 350.639 47.3887C349.506 47.3887 348.666 47.6328 348.119 48.1211C347.592 48.5898 347.25 49.3125 347.094 50.2891C346.938 51.2656 346.859 52.7207 346.859 54.6543C346.859 56.5879 346.938 58.043 347.094 59.0195C347.25 59.9961 347.592 60.7285 348.119 61.2168C348.666 61.6855 349.516 61.9199 350.668 61.9199C351.469 61.9199 352.27 61.8125 353.07 61.5977L353.48 63.7656C352.426 64.0977 351.283 64.2637 350.053 64.2637ZM361.625 64.3809C359.711 64.3809 358.305 63.7461 357.406 62.4766C356.508 61.207 356.059 59.5273 356.059 57.4375C356.059 55.3477 356.508 53.668 357.406 52.3984C358.305 51.1289 359.711 50.4941 361.625 50.4941C363.539 50.4941 364.945 51.1289 365.844 52.3984C366.742 53.668 367.191 55.3477 367.191 57.4375C367.191 59.5273 366.742 61.207 365.844 62.4766C364.945 63.7461 363.539 64.3809 361.625 64.3809ZM361.625 61.9785C362.387 61.9785 362.924 61.6465 363.236 60.9824C363.568 60.3184 363.734 59.1367 363.734 57.4375C363.734 55.7578 363.568 54.5859 363.236 53.9219C362.924 53.2383 362.387 52.8965 361.625 52.8965C360.863 52.8965 360.316 53.2383 359.984 53.9219C359.672 54.5859 359.516 55.7578 359.516 57.4375C359.516 59.1367 359.672 60.3184 359.984 60.9824C360.316 61.6465 360.863 61.9785 361.625 61.9785ZM369.652 52.7793L369.594 50.875H372.465L372.934 53.5703V64H369.652V52.7793ZM376.566 55.5332C376.566 54.6738 376.459 54.0586 376.244 53.6875C376.049 53.2969 375.658 53.1016 375.072 53.1016C374.564 53.1016 374.027 53.2676 373.461 53.5996C372.895 53.9121 372.357 54.3809 371.85 55.0059L370.561 53.8926C371.225 52.916 372.025 52.1543 372.963 51.6074C373.92 51.041 374.965 50.7578 376.098 50.7578C377.309 50.7578 378.236 51.0996 378.881 51.7832C379.525 52.4473 379.848 53.6191 379.848 55.2988V64H376.566V55.5332ZM387.523 47.125V50.875H391.742V53.2188H387.523V59.8984C387.523 60.5039 387.68 60.9922 387.992 61.3633C388.305 61.7148 388.852 61.8906 389.633 61.8906C390.355 61.8906 391.156 61.8223 392.035 61.6855L392.357 63.8828C391.127 64.1172 389.965 64.2344 388.871 64.2344C387.465 64.2344 386.342 63.873 385.502 63.1504C384.662 62.4277 384.242 61.3242 384.242 59.8398V53.248L382.045 53.1602V50.875H384.242V47.125H387.523ZM402.523 55.6504C402.523 54.752 402.348 54.1367 401.996 53.8047C401.664 53.4531 401.059 53.2773 400.18 53.2773C399.594 53.2773 398.998 53.3359 398.393 53.4531C397.807 53.5703 397.211 53.7266 396.605 53.9219L396.078 51.6074C397.719 51.002 399.32 50.6992 400.883 50.6992C402.523 50.6992 403.754 51.0703 404.574 51.8125C405.395 52.5352 405.805 53.6777 405.805 55.2402V62.125L405.863 64H403.08L402.523 61.5098V55.6504ZM404.369 57.9355C402.396 57.9355 401 58.1406 400.18 58.5508C399.359 58.9414 398.949 59.5078 398.949 60.25C398.949 60.7188 399.076 61.0898 399.33 61.3633C399.584 61.6367 399.975 61.7734 400.502 61.7734C400.951 61.7734 401.43 61.666 401.938 61.4512C402.445 61.2168 403.09 60.8262 403.871 60.2793L403.988 60.1914L404.779 61.8027C404.76 61.8223 404.73 61.8418 404.691 61.8613C403.734 62.6035 402.865 63.1699 402.084 63.5605C401.303 63.9316 400.414 64.1172 399.418 64.1172C398.246 64.1172 397.309 63.7949 396.605 63.1504C395.902 62.5059 395.551 61.5879 395.551 60.3965C395.551 58.834 396.234 57.7012 397.602 56.998C398.988 56.2754 401.244 55.9141 404.369 55.9141V57.9355ZM418.139 53.541C417.318 53.2676 416.439 53.1309 415.502 53.1309C414.721 53.1309 414.105 53.2676 413.656 53.541C413.227 53.8145 412.914 54.2637 412.719 54.8887C412.523 55.4941 412.426 56.3438 412.426 57.4375C412.426 58.5312 412.523 59.3906 412.719 60.0156C412.914 60.6211 413.227 61.0605 413.656 61.334C414.105 61.6074 414.721 61.7441 415.502 61.7441C416.264 61.7441 417.143 61.6074 418.139 61.334L418.637 63.502C417.484 63.9707 416.225 64.2051 414.857 64.2051C412.729 64.2051 411.225 63.5996 410.346 62.3887C409.467 61.1777 409.027 59.5273 409.027 57.4375C409.027 55.3477 409.467 53.6973 410.346 52.4863C411.225 51.2754 412.729 50.6699 414.857 50.6699C416.225 50.6699 417.484 50.9043 418.637 51.373L418.139 53.541ZM426.898 47.125V50.875H431.117V53.2188H426.898V59.8984C426.898 60.5039 427.055 60.9922 427.367 61.3633C427.68 61.7148 428.227 61.8906 429.008 61.8906C429.73 61.8906 430.531 61.8223 431.41 61.6855L431.732 63.8828C430.502 64.1172 429.34 64.2344 428.246 64.2344C426.84 64.2344 425.717 63.873 424.877 63.1504C424.037 62.4277 423.617 61.3242 423.617 59.8398V53.248L421.42 53.1602V50.875H423.617V47.125H426.898ZM447.758 52.7793L447.699 50.875H449.896L450.512 52.75V64H447.758V52.7793ZM452.27 54.625C452.27 54.1172 452.201 53.7461 452.064 53.5117C451.947 53.2578 451.732 53.1309 451.42 53.1309C451.225 53.1309 451.02 53.1895 450.805 53.3066C450.609 53.4043 450.443 53.5508 450.307 53.7461L449.955 52.1055C450.111 51.7344 450.375 51.4219 450.746 51.168C451.137 50.9141 451.596 50.7871 452.123 50.7871C452.748 50.7871 453.266 50.9727 453.676 51.3438C454.086 51.6953 454.34 52.1836 454.438 52.8086H454.73V64H452.27V54.625ZM456.488 54.625C456.488 54.1172 456.42 53.7461 456.283 53.5117C456.146 53.2773 455.922 53.1602 455.609 53.1602C455.434 53.1602 455.238 53.209 455.023 53.3066C454.828 53.4043 454.652 53.5508 454.496 53.7461L453.734 51.9297C454.027 51.5586 454.379 51.2852 454.789 51.1094C455.219 50.9141 455.707 50.8164 456.254 50.8164C457.133 50.8164 457.846 51.0996 458.393 51.666C458.959 52.2129 459.242 53.0527 459.242 54.1855V64H456.488V54.625ZM461.234 57.4375C461.234 55.3477 461.654 53.668 462.494 52.3984C463.354 51.1289 464.73 50.4941 466.625 50.4941C467.953 50.4941 469.047 50.8457 469.906 51.5488C470.766 52.2324 471.352 53.1797 471.664 54.3906C471.996 55.6016 472.064 56.9688 471.869 58.4922H463.051V56.207H469.73L468.559 57.4375C468.676 55.9141 468.559 54.7715 468.207 54.0098C467.875 53.2285 467.348 52.8379 466.625 52.8379C465.922 52.8379 465.414 53.1895 465.102 53.8926C464.789 54.5957 464.633 55.7773 464.633 57.4375C464.633 58.5898 464.73 59.498 464.926 60.1621C465.121 60.8262 465.434 61.3047 465.863 61.5977C466.293 61.8906 466.879 62.0371 467.621 62.0371C468.07 62.0371 468.568 61.9688 469.115 61.832C469.682 61.6953 470.287 61.5195 470.932 61.3047L471.459 63.4141C469.896 64.0586 468.461 64.3809 467.152 64.3809C465.023 64.3809 463.5 63.7559 462.582 62.5059C461.684 61.2559 461.234 59.5664 461.234 57.4375ZM131.557 94.2344C130.756 94.2344 129.945 94.1465 129.125 93.9707C128.324 93.7949 127.592 93.5605 126.928 93.2676L127.514 91.2168C128.783 91.627 130.023 91.832 131.234 91.832C132.152 91.832 132.787 91.7148 133.139 91.4805C133.49 91.2266 133.666 90.9141 133.666 90.543C133.666 90.1133 133.471 89.791 133.08 89.5762C132.709 89.3613 132.104 89.127 131.264 88.873C130.385 88.6191 129.672 88.3652 129.125 88.1113C128.578 87.8574 128.1 87.4668 127.689 86.9395C127.299 86.3926 127.104 85.6797 127.104 84.8008C127.104 83.9023 127.309 83.1406 127.719 82.5156C128.148 81.8906 128.754 81.4219 129.535 81.1094C130.316 80.7969 131.244 80.6406 132.318 80.6406C133.646 80.6406 134.984 80.8555 136.332 81.2852L135.834 83.541C134.623 83.209 133.52 83.043 132.523 83.043C131.762 83.043 131.195 83.1699 130.824 83.4238C130.453 83.6582 130.268 83.9609 130.268 84.332C130.268 84.7812 130.453 85.1133 130.824 85.3281C131.215 85.5234 131.83 85.7383 132.67 85.9727C133.529 86.207 134.232 86.4512 134.779 86.7051C135.346 86.9395 135.824 87.3301 136.215 87.877C136.625 88.4238 136.83 89.1562 136.83 90.0742C136.83 91.0508 136.596 91.8516 136.127 92.4766C135.678 93.082 135.053 93.5312 134.252 93.8242C133.471 94.0977 132.572 94.2344 131.557 94.2344ZM145.062 94.3809C143.148 94.3809 141.742 93.7461 140.844 92.4766C139.945 91.207 139.496 89.5273 139.496 87.4375C139.496 85.3477 139.945 83.668 140.844 82.3984C141.742 81.1289 143.148 80.4941 145.062 80.4941C146.977 80.4941 148.383 81.1289 149.281 82.3984C150.18 83.668 150.629 85.3477 150.629 87.4375C150.629 89.5273 150.18 91.207 149.281 92.4766C148.383 93.7461 146.977 94.3809 145.062 94.3809ZM145.062 91.9785C145.824 91.9785 146.361 91.6465 146.674 90.9824C147.006 90.3184 147.172 89.1367 147.172 87.4375C147.172 85.7578 147.006 84.5859 146.674 83.9219C146.361 83.2383 145.824 82.8965 145.062 82.8965C144.301 82.8965 143.754 83.2383 143.422 83.9219C143.109 84.5859 142.953 85.7578 142.953 87.4375C142.953 89.1367 143.109 90.3184 143.422 90.9824C143.754 91.6465 144.301 91.9785 145.062 91.9785ZM172.807 93.3555C173.295 91.4805 173.627 89.5957 173.803 87.7012C173.979 85.7871 174.066 83.5117 174.066 80.875H177.172C177.172 83.4922 176.996 85.9141 176.645 88.1406C176.312 90.3477 175.658 92.3008 174.682 94H173.1L172.807 93.3555ZM167.943 94C166.967 92.3008 166.303 90.3477 165.951 88.1406C165.619 85.9141 165.453 83.4922 165.453 80.875H168.559C168.559 83.5117 168.646 85.7871 168.822 87.7012C168.998 89.5957 169.33 91.4805 169.818 93.3555L169.525 94H167.943ZM168.207 94C168.91 92.418 169.398 90.9238 169.672 89.5176C169.965 88.1113 170.111 86.3828 170.111 84.332H172.016C172.016 86.1484 171.82 87.8574 171.43 89.459C171.039 91.0605 170.473 92.5742 169.73 94H168.207ZM172.895 94C172.152 92.5742 171.586 91.0605 171.195 89.459C170.805 87.8574 170.609 86.1484 170.609 84.332H172.514C172.514 86.3828 172.65 88.1113 172.924 89.5176C173.217 90.9238 173.715 92.418 174.418 94H172.895ZM179.047 87.4375C179.047 85.3477 179.467 83.668 180.307 82.3984C181.166 81.1289 182.543 80.4941 184.438 80.4941C185.766 80.4941 186.859 80.8457 187.719 81.5488C188.578 82.2324 189.164 83.1797 189.477 84.3906C189.809 85.6016 189.877 86.9688 189.682 88.4922H180.863V86.207H187.543L186.371 87.4375C186.488 85.9141 186.371 84.7715 186.02 84.0098C185.688 83.2285 185.16 82.8379 184.438 82.8379C183.734 82.8379 183.227 83.1895 182.914 83.8926C182.602 84.5957 182.445 85.7773 182.445 87.4375C182.445 88.5898 182.543 89.498 182.738 90.1621C182.934 90.8262 183.246 91.3047 183.676 91.5977C184.105 91.8906 184.691 92.0371 185.434 92.0371C185.883 92.0371 186.381 91.9688 186.928 91.832C187.494 91.6953 188.1 91.5195 188.744 91.3047L189.271 93.4141C187.709 94.0586 186.273 94.3809 184.965 94.3809C182.836 94.3809 181.312 93.7559 180.395 92.5059C179.496 91.2559 179.047 89.5664 179.047 87.4375ZM214.701 83.541C213.881 83.2676 213.002 83.1309 212.064 83.1309C211.283 83.1309 210.668 83.2676 210.219 83.541C209.789 83.8145 209.477 84.2637 209.281 84.8887C209.086 85.4941 208.988 86.3438 208.988 87.4375C208.988 88.5312 209.086 89.3906 209.281 90.0156C209.477 90.6211 209.789 91.0605 210.219 91.334C210.668 91.6074 211.283 91.7441 212.064 91.7441C212.826 91.7441 213.705 91.6074 214.701 91.334L215.199 93.502C214.047 93.9707 212.787 94.2051 211.42 94.2051C209.291 94.2051 207.787 93.5996 206.908 92.3887C206.029 91.1777 205.59 89.5273 205.59 87.4375C205.59 85.3477 206.029 83.6973 206.908 82.4863C207.787 81.2754 209.291 80.6699 211.42 80.6699C212.787 80.6699 214.047 80.9043 215.199 81.373L214.701 83.541ZM225.336 85.6504C225.336 84.752 225.16 84.1367 224.809 83.8047C224.477 83.4531 223.871 83.2773 222.992 83.2773C222.406 83.2773 221.811 83.3359 221.205 83.4531C220.619 83.5703 220.023 83.7266 219.418 83.9219L218.891 81.6074C220.531 81.002 222.133 80.6992 223.695 80.6992C225.336 80.6992 226.566 81.0703 227.387 81.8125C228.207 82.5352 228.617 83.6777 228.617 85.2402V92.125L228.676 94H225.893L225.336 91.5098V85.6504ZM227.182 87.9355C225.209 87.9355 223.812 88.1406 222.992 88.5508C222.172 88.9414 221.762 89.5078 221.762 90.25C221.762 90.7188 221.889 91.0898 222.143 91.3633C222.396 91.6367 222.787 91.7734 223.314 91.7734C223.764 91.7734 224.242 91.666 224.75 91.4512C225.258 91.2168 225.902 90.8262 226.684 90.2793L226.801 90.1914L227.592 91.8027C227.572 91.8223 227.543 91.8418 227.504 91.8613C226.547 92.6035 225.678 93.1699 224.896 93.5605C224.115 93.9316 223.227 94.1172 222.23 94.1172C221.059 94.1172 220.121 93.7949 219.418 93.1504C218.715 92.5059 218.363 91.5879 218.363 90.3965C218.363 88.834 219.047 87.7012 220.414 86.998C221.801 86.2754 224.057 85.9141 227.182 85.9141V87.9355ZM231.84 82.7793L231.781 80.875H234.652L235.121 83.5703V94H231.84V82.7793ZM238.754 85.5332C238.754 84.6738 238.646 84.0586 238.432 83.6875C238.236 83.2969 237.846 83.1016 237.26 83.1016C236.752 83.1016 236.215 83.2676 235.648 83.5996C235.082 83.9121 234.545 84.3809 234.037 85.0059L232.748 83.8926C233.412 82.916 234.213 82.1543 235.15 81.6074C236.107 81.041 237.152 80.7578 238.285 80.7578C239.496 80.7578 240.424 81.0996 241.068 81.7832C241.713 82.4473 242.035 83.6191 242.035 85.2988V94H238.754V85.5332ZM257.445 82.7793L257.387 80.875H259.584L260.199 82.75V94H257.445V82.7793ZM261.957 84.625C261.957 84.1172 261.889 83.7461 261.752 83.5117C261.635 83.2578 261.42 83.1309 261.107 83.1309C260.912 83.1309 260.707 83.1895 260.492 83.3066C260.297 83.4043 260.131 83.5508 259.994 83.7461L259.643 82.1055C259.799 81.7344 260.062 81.4219 260.434 81.168C260.824 80.9141 261.283 80.7871 261.811 80.7871C262.436 80.7871 262.953 80.9727 263.363 81.3438C263.773 81.6953 264.027 82.1836 264.125 82.8086H264.418V94H261.957V84.625ZM266.176 84.625C266.176 84.1172 266.107 83.7461 265.971 83.5117C265.834 83.2773 265.609 83.1602 265.297 83.1602C265.121 83.1602 264.926 83.209 264.711 83.3066C264.516 83.4043 264.34 83.5508 264.184 83.7461L263.422 81.9297C263.715 81.5586 264.066 81.2852 264.477 81.1094C264.906 80.9141 265.395 80.8164 265.941 80.8164C266.82 80.8164 267.533 81.0996 268.08 81.666C268.646 82.2129 268.93 83.0527 268.93 84.1855V94H266.176V84.625ZM270.922 87.4375C270.922 85.3477 271.342 83.668 272.182 82.3984C273.041 81.1289 274.418 80.4941 276.312 80.4941C277.641 80.4941 278.734 80.8457 279.594 81.5488C280.453 82.2324 281.039 83.1797 281.352 84.3906C281.684 85.6016 281.752 86.9688 281.557 88.4922H272.738V86.207H279.418L278.246 87.4375C278.363 85.9141 278.246 84.7715 277.895 84.0098C277.562 83.2285 277.035 82.8379 276.312 82.8379C275.609 82.8379 275.102 83.1895 274.789 83.8926C274.477 84.5957 274.32 85.7773 274.32 87.4375C274.32 88.5898 274.418 89.498 274.613 90.1621C274.809 90.8262 275.121 91.3047 275.551 91.5977C275.98 91.8906 276.566 92.0371 277.309 92.0371C277.758 92.0371 278.256 91.9688 278.803 91.832C279.369 91.6953 279.975 91.5195 280.619 91.3047L281.146 93.4141C279.584 94.0586 278.148 94.3809 276.84 94.3809C274.711 94.3809 273.188 93.7559 272.27 92.5059C271.371 91.2559 270.922 89.5664 270.922 87.4375ZM284.047 87.4375C284.047 85.3477 284.467 83.668 285.307 82.3984C286.166 81.1289 287.543 80.4941 289.438 80.4941C290.766 80.4941 291.859 80.8457 292.719 81.5488C293.578 82.2324 294.164 83.1797 294.477 84.3906C294.809 85.6016 294.877 86.9688 294.682 88.4922H285.863V86.207H292.543L291.371 87.4375C291.488 85.9141 291.371 84.7715 291.02 84.0098C290.688 83.2285 290.16 82.8379 289.438 82.8379C288.734 82.8379 288.227 83.1895 287.914 83.8926C287.602 84.5957 287.445 85.7773 287.445 87.4375C287.445 88.5898 287.543 89.498 287.738 90.1621C287.934 90.8262 288.246 91.3047 288.676 91.5977C289.105 91.8906 289.691 92.0371 290.434 92.0371C290.883 92.0371 291.381 91.9688 291.928 91.832C292.494 91.6953 293.1 91.5195 293.744 91.3047L294.271 93.4141C292.709 94.0586 291.273 94.3809 289.965 94.3809C287.836 94.3809 286.312 93.7559 285.395 92.5059C284.496 91.2559 284.047 89.5664 284.047 87.4375ZM302.211 77.125V80.875H306.43V83.2188H302.211V89.8984C302.211 90.5039 302.367 90.9922 302.68 91.3633C302.992 91.7148 303.539 91.8906 304.32 91.8906C305.043 91.8906 305.844 91.8223 306.723 91.6855L307.045 93.8828C305.814 94.1172 304.652 94.2344 303.559 94.2344C302.152 94.2344 301.029 93.873 300.189 93.1504C299.35 92.4277 298.93 91.3242 298.93 89.8398V83.248L296.732 83.1602V80.875H298.93V77.125H302.211ZM323.422 87.4375C323.422 85.3477 323.842 83.668 324.682 82.3984C325.541 81.1289 326.918 80.4941 328.812 80.4941C330.141 80.4941 331.234 80.8457 332.094 81.5488C332.953 82.2324 333.539 83.1797 333.852 84.3906C334.184 85.6016 334.252 86.9688 334.057 88.4922H325.238V86.207H331.918L330.746 87.4375C330.863 85.9141 330.746 84.7715 330.395 84.0098C330.062 83.2285 329.535 82.8379 328.812 82.8379C328.109 82.8379 327.602 83.1895 327.289 83.8926C326.977 84.5957 326.82 85.7773 326.82 87.4375C326.82 88.5898 326.918 89.498 327.113 90.1621C327.309 90.8262 327.621 91.3047 328.051 91.5977C328.48 91.8906 329.066 92.0371 329.809 92.0371C330.258 92.0371 330.756 91.9688 331.303 91.832C331.869 91.6953 332.475 91.5195 333.119 91.3047L333.646 93.4141C332.084 94.0586 330.648 94.3809 329.34 94.3809C327.211 94.3809 325.688 93.7559 324.77 92.5059C323.871 91.2559 323.422 89.5664 323.422 87.4375ZM343.461 85.6504C343.461 84.752 343.285 84.1367 342.934 83.8047C342.602 83.4531 341.996 83.2773 341.117 83.2773C340.531 83.2773 339.936 83.3359 339.33 83.4531C338.744 83.5703 338.148 83.7266 337.543 83.9219L337.016 81.6074C338.656 81.002 340.258 80.6992 341.82 80.6992C343.461 80.6992 344.691 81.0703 345.512 81.8125C346.332 82.5352 346.742 83.6777 346.742 85.2402V92.125L346.801 94H344.018L343.461 91.5098V85.6504ZM345.307 87.9355C343.334 87.9355 341.938 88.1406 341.117 88.5508C340.297 88.9414 339.887 89.5078 339.887 90.25C339.887 90.7188 340.014 91.0898 340.268 91.3633C340.521 91.6367 340.912 91.7734 341.439 91.7734C341.889 91.7734 342.367 91.666 342.875 91.4512C343.383 91.2168 344.027 90.8262 344.809 90.2793L344.926 90.1914L345.717 91.8027C345.697 91.8223 345.668 91.8418 345.629 91.8613C344.672 92.6035 343.803 93.1699 343.021 93.5605C342.24 93.9316 341.352 94.1172 340.355 94.1172C339.184 94.1172 338.246 93.7949 337.543 93.1504C336.84 92.5059 336.488 91.5879 336.488 90.3965C336.488 88.834 337.172 87.7012 338.539 86.998C339.926 86.2754 342.182 85.9141 345.307 85.9141V87.9355ZM359.076 83.541C358.256 83.2676 357.377 83.1309 356.439 83.1309C355.658 83.1309 355.043 83.2676 354.594 83.541C354.164 83.8145 353.852 84.2637 353.656 84.8887C353.461 85.4941 353.363 86.3438 353.363 87.4375C353.363 88.5312 353.461 89.3906 353.656 90.0156C353.852 90.6211 354.164 91.0605 354.594 91.334C355.043 91.6074 355.658 91.7441 356.439 91.7441C357.201 91.7441 358.08 91.6074 359.076 91.334L359.574 93.502C358.422 93.9707 357.162 94.2051 355.795 94.2051C353.666 94.2051 352.162 93.5996 351.283 92.3887C350.404 91.1777 349.965 89.5273 349.965 87.4375C349.965 85.3477 350.404 83.6973 351.283 82.4863C352.162 81.2754 353.666 80.6699 355.795 80.6699C357.162 80.6699 358.422 80.9043 359.574 81.373L359.076 83.541ZM363.09 75.25H366.371V94H363.09V75.25ZM370.004 85.5332C370.004 84.6738 369.896 84.0586 369.682 83.6875C369.486 83.2969 369.096 83.1016 368.51 83.1016C368.002 83.1016 367.465 83.2676 366.898 83.5996C366.332 83.9121 365.795 84.3809 365.287 85.0059L363.998 83.8926C364.662 82.916 365.463 82.1543 366.4 81.6074C367.357 81.041 368.402 80.7578 369.535 80.7578C370.746 80.7578 371.674 81.0996 372.318 81.7832C372.963 82.4473 373.285 83.6191 373.285 85.2988V94H370.004V85.5332ZM394.438 94.3809C392.523 94.3809 391.117 93.7461 390.219 92.4766C389.32 91.207 388.871 89.5273 388.871 87.4375C388.871 85.3477 389.32 83.668 390.219 82.3984C391.117 81.1289 392.523 80.4941 394.438 80.4941C396.352 80.4941 397.758 81.1289 398.656 82.3984C399.555 83.668 400.004 85.3477 400.004 87.4375C400.004 89.5273 399.555 91.207 398.656 92.4766C397.758 93.7461 396.352 94.3809 394.438 94.3809ZM394.438 91.9785C395.199 91.9785 395.736 91.6465 396.049 90.9824C396.381 90.3184 396.547 89.1367 396.547 87.4375C396.547 85.7578 396.381 84.5859 396.049 83.9219C395.736 83.2383 395.199 82.8965 394.438 82.8965C393.676 82.8965 393.129 83.2383 392.797 83.9219C392.484 84.5859 392.328 85.7578 392.328 87.4375C392.328 89.1367 392.484 90.3184 392.797 90.9824C393.129 91.6465 393.676 91.9785 394.438 91.9785ZM407.211 77.125V80.875H411.43V83.2188H407.211V89.8984C407.211 90.5039 407.367 90.9922 407.68 91.3633C407.992 91.7148 408.539 91.8906 409.32 91.8906C410.043 91.8906 410.844 91.8223 411.723 91.6855L412.045 93.8828C410.814 94.1172 409.652 94.2344 408.559 94.2344C407.152 94.2344 406.029 93.873 405.189 93.1504C404.35 92.4277 403.93 91.3242 403.93 89.8398V83.248L401.732 83.1602V80.875H403.93V77.125H407.211ZM415.59 75.25H418.871V94H415.59V75.25ZM422.504 85.5332C422.504 84.6738 422.396 84.0586 422.182 83.6875C421.986 83.2969 421.596 83.1016 421.01 83.1016C420.502 83.1016 419.965 83.2676 419.398 83.5996C418.832 83.9121 418.295 84.3809 417.787 85.0059L416.498 83.8926C417.162 82.916 417.963 82.1543 418.9 81.6074C419.857 81.041 420.902 80.7578 422.035 80.7578C423.246 80.7578 424.174 81.0996 424.818 81.7832C425.463 82.4473 425.785 83.6191 425.785 85.2988V94H422.504V85.5332ZM428.422 87.4375C428.422 85.3477 428.842 83.668 429.682 82.3984C430.541 81.1289 431.918 80.4941 433.812 80.4941C435.141 80.4941 436.234 80.8457 437.094 81.5488C437.953 82.2324 438.539 83.1797 438.852 84.3906C439.184 85.6016 439.252 86.9688 439.057 88.4922H430.238V86.207H436.918L435.746 87.4375C435.863 85.9141 435.746 84.7715 435.395 84.0098C435.062 83.2285 434.535 82.8379 433.812 82.8379C433.109 82.8379 432.602 83.1895 432.289 83.8926C431.977 84.5957 431.82 85.7773 431.82 87.4375C431.82 88.5898 431.918 89.498 432.113 90.1621C432.309 90.8262 432.621 91.3047 433.051 91.5977C433.48 91.8906 434.066 92.0371 434.809 92.0371C435.258 92.0371 435.756 91.9688 436.303 91.832C436.869 91.6953 437.475 91.5195 438.119 91.3047L438.646 93.4141C437.084 94.0586 435.648 94.3809 434.34 94.3809C432.211 94.3809 430.688 93.7559 429.77 92.5059C428.871 91.2559 428.422 89.5664 428.422 87.4375ZM443.158 82.7793L443.1 80.875H445.971L446.439 83.7754V94H443.158V82.7793ZM444.389 84.8887C445.033 83.5996 445.805 82.5938 446.703 81.8711C447.602 81.1289 448.646 80.7578 449.838 80.7578C450.404 80.7578 451.02 80.8359 451.684 80.9922L451.156 83.6875C450.453 83.5703 449.867 83.5117 449.398 83.5117C448.539 83.5117 447.816 83.707 447.23 84.0977C446.664 84.4883 446.156 85.084 445.707 85.8848L444.389 84.8887ZM458.129 75.25H461.996L461.527 87.7891H458.598L458.129 75.25ZM460.062 94.293C459.359 94.293 458.773 94.1074 458.305 93.7363C457.836 93.3457 457.602 92.8086 457.602 92.125C457.602 91.4609 457.836 90.9336 458.305 90.543C458.773 90.1523 459.359 89.957 460.062 89.957C460.766 89.957 461.352 90.1523 461.82 90.543C462.289 90.9336 462.523 91.4609 462.523 92.125C462.523 92.8086 462.289 93.3457 461.82 93.7363C461.352 94.1074 460.766 94.293 460.062 94.293Z" fill="#282A36"/>
</svg>
