<svg width="135" height="136" viewBox="0 0 135 136" fill="none" xmlns="http://www.w3.org/2000/svg">
<path d="M105.18 22.2177C105.028 22.0458 104.848 21.8994 104.648 21.7832C98.7466 16.9957 91.9063 13.3249 84.4492 11.0927C84.3232 11.0415 84.1909 11.0019 84.0529 10.9745C78.8205 9.44826 73.2908 8.62646 67.5722 8.62646C61.8535 8.62646 56.3238 9.44826 51.0914 10.9745C50.9534 11.0016 50.8211 11.0412 50.6951 11.0927C42.7084 13.4836 35.4284 17.5239 29.2525 22.8196C29.0478 22.9458 28.8649 23.1034 28.7131 23.2885C24.9561 26.5889 21.6197 30.3581 18.7992 34.5053C18.6532 34.6654 18.5312 34.8469 18.4386 35.0456C12.2421 44.3746 8.62598 55.5585 8.62598 67.5726C8.62598 78.2778 11.4956 88.3254 16.5043 96.9876C16.5849 97.1849 16.6933 97.3675 16.8255 97.5305C24.1035 109.812 35.7093 119.237 49.5286 123.691C49.6456 123.741 49.7687 123.781 49.8955 123.81C55.4781 125.569 61.4159 126.519 67.5719 126.519C76.0825 126.519 84.176 124.703 91.4899 121.443C91.6711 121.388 91.8453 121.312 92.0066 121.211C99.0704 117.981 105.388 113.393 110.628 107.786C110.814 107.642 110.977 107.469 111.108 107.272C116.759 101.08 121.108 93.6812 123.723 85.5141C123.779 85.3862 123.823 85.2519 123.854 85.1127C125.585 79.5701 126.518 73.6786 126.518 67.5732C126.518 49.3528 118.208 33.0388 105.18 22.2177ZM81.1053 14.637C79.4111 20.5744 73.8938 24.8519 67.5722 24.8519C61.2505 24.8519 55.7332 20.5741 54.039 14.637C58.3682 13.5296 62.9025 12.9396 67.5722 12.9396C72.2418 12.9396 76.7761 13.5296 81.1053 14.637ZM31.2389 26.8106H44.4966C46.9467 26.8106 48.9406 28.8042 48.9406 31.2546C48.9406 33.1064 47.774 34.7819 46.0375 35.424C45.191 35.7371 44.6289 36.5442 44.6289 37.4468V59.5528C38.5594 59.6557 32.4388 59.6851 31.4566 59.5603C30.838 59.4289 30.1905 59.5761 29.6879 59.9654C29.1608 60.374 28.8526 61.0032 28.8526 61.67V65.831C28.8526 67.5692 27.4384 68.9833 25.7002 68.9833C23.962 68.9833 22.5479 67.5692 22.5479 65.831V36.6656C25.0435 33.0411 27.9643 29.7324 31.2389 26.8106ZM18.2348 44.1221V65.8307C18.2348 69.1975 20.4756 72.0497 23.5437 72.9773V78.6151C20.2036 80.5621 17.7112 83.8073 16.764 87.6563C14.2966 81.4368 12.9391 74.6603 12.9391 67.5726C12.9391 59.1839 14.8418 51.2319 18.2348 44.1221ZM20.6573 95.5381V91.1085C20.6573 85.517 25.2062 80.9681 30.7981 80.9681C36.3896 80.9681 40.9385 85.517 40.9385 91.1085V92.6892C40.9385 93.8802 41.9041 94.8457 43.0951 94.8457H48.6648C52.0745 94.8457 54.8487 97.6197 54.8487 101.029C54.8487 103.94 52.785 106.485 49.9415 107.081C48.9426 107.29 48.2275 108.171 48.2275 109.191V118.664C36.6484 114.265 26.941 106.04 20.6573 95.5381ZM52.5403 120.102V110.785C56.4635 109.22 59.1615 105.363 59.1615 101.029C59.1615 95.2414 54.4528 90.5326 48.6645 90.5326H45.2402C44.9365 82.8291 38.5747 76.655 30.7978 76.655C29.7902 76.655 28.8066 76.7593 27.8565 76.9566V72.9776C30.9246 72.05 33.1654 69.1978 33.1654 65.831V63.9326C35.5287 63.9827 39.3594 63.9608 44.6286 63.8674V64.5451C44.6286 65.7361 45.5941 66.7017 46.7851 66.7017C47.9761 66.7017 48.9417 65.7361 48.9417 64.5451V38.7986C51.5707 37.243 53.2534 34.3759 53.2534 31.2543C53.2534 26.4256 49.325 22.4972 44.4963 22.4972H36.7378C40.7723 19.7288 45.1942 17.4862 49.9058 15.872C52.1395 23.6022 59.3335 29.165 67.5719 29.165C75.8102 29.165 83.0043 23.6022 85.2379 15.872C91.1535 17.8988 96.6136 20.914 101.422 24.7199L101.504 31.7446H92.1852C90.9942 31.7446 90.0286 32.7101 90.0286 33.9011C90.0286 35.0921 90.9942 36.0577 92.1852 36.0577H95.7795V39.8205H88.8997C88.7793 39.8205 88.6588 39.8306 88.5397 39.8507C84.766 40.4899 81.8104 43.9884 81.8104 47.8159V51.8245H67.927C66.736 51.8245 65.7704 52.7901 65.7704 53.9811V60.1342C65.7704 65.7456 70.3354 70.3106 75.9468 70.3106C80.0196 70.3106 83.6331 67.9016 85.2439 64.2814C88.9808 64.2814 98.5528 64.2814 102.061 64.2814C104.052 67.6946 107.47 70.0372 111.343 70.6781V74.6864H74.8202C69.8302 74.6864 65.7701 78.7462 65.7701 83.7365C65.7701 88.7268 69.8299 92.7866 74.8202 92.7866H80.3077V106.234C80.3077 111.218 82.4973 115.792 86.2153 118.928C80.3951 121.048 74.1163 122.206 67.5722 122.206C62.3607 122.206 57.3178 121.471 52.5403 120.102ZM111.465 100.064V86.8049H118.707C116.906 91.577 114.457 96.033 111.465 100.064ZM120.135 82.4918H109.309C108.118 82.4918 107.152 83.4573 107.152 84.6483V105.193C102.533 110.051 97.0303 114.06 90.9059 116.965C87.006 114.724 84.6211 110.698 84.6211 106.233V90.6298C84.6211 89.4388 83.6555 88.4732 82.4645 88.4732H74.8205C72.2088 88.4732 70.0835 86.3483 70.0835 83.7363C70.0835 81.1242 72.2085 78.9993 74.8205 78.9993H113.499C114.69 78.9993 115.656 78.0337 115.656 76.8427V68.6984C115.656 67.5074 114.69 66.5418 113.499 66.5418C109.981 66.5418 106.78 64.4632 105.345 61.2458C104.998 60.4686 104.226 59.968 103.375 59.968L83.9385 59.9683C82.3395 59.9683 81.8159 60.9569 81.6445 61.5952L81.6284 61.5912C80.9656 64.1854 78.6293 65.9975 75.9468 65.9975C72.7137 65.9975 70.0835 63.3673 70.0835 60.1342V56.1377H83.967C85.158 56.1377 86.1235 55.1721 86.1235 53.9811V47.8159C86.1235 46.1735 87.5003 44.4933 89.1062 44.1336H97.9363C99.1273 44.1336 100.093 43.1681 100.093 41.9771V36.0577H103.687C104.263 36.0577 104.816 35.8271 105.221 35.4171C105.626 35.007 105.85 34.4521 105.843 33.8758L105.781 28.5641C115.909 38.4869 122.205 52.3073 122.205 67.5726C122.205 72.7429 121.483 77.7479 120.135 82.4918Z" fill="#50FA7B"/>
<path d="M76.9486 47.3102C78.1396 47.3102 79.1051 46.3446 79.1051 45.1536V42.9071C79.1051 41.7161 78.1396 40.7505 76.9486 40.7505C75.7576 40.7505 74.792 41.7161 74.792 42.9071V45.1536C74.792 46.3446 75.7576 47.3102 76.9486 47.3102Z" fill="#50FA7B"/>
<path d="M132.983 69.7336C131.796 69.6566 130.769 70.5571 130.691 71.7456C128.534 104.878 100.809 130.832 67.5725 130.832C54.7791 130.832 42.4536 127.03 31.9284 119.838C31.3717 119.457 30.6693 119.359 30.0298 119.572L8.34448 126.8L15.573 105.115C15.7861 104.476 15.688 103.773 15.3076 103.217C8.11502 92.691 4.31314 80.3655 4.31314 67.5725C4.31314 32.691 32.691 4.31314 67.5725 4.31314C100.809 4.31314 128.534 30.267 130.691 63.3996C130.769 64.5883 131.796 65.4918 132.983 65.4116C134.172 65.3342 135.073 64.308 134.995 63.1196C133.882 46.0212 126.375 30.1192 113.857 18.3435C101.282 6.51456 84.8451 0 67.5725 0C49.5231 0 32.5544 7.02869 19.7915 19.7915C7.02869 32.5544 0 49.5231 0 67.5725C0 80.8773 3.85048 93.7095 11.146 104.756L2.88865 129.528C2.63044 130.303 2.832 131.157 3.40968 131.735C3.98706 132.312 4.84164 132.514 5.61656 132.256L30.3883 123.999C41.4349 131.294 54.2673 135.145 67.5725 135.145C84.8448 135.145 101.282 128.63 113.857 116.802C126.375 105.026 133.882 89.1246 134.995 72.0259C135.073 70.8372 134.172 69.8113 132.983 69.7336Z" fill="#50FA7B"/>
</svg>
