<svg width="107" height="112" viewBox="0 0 107 112" fill="none" xmlns="http://www.w3.org/2000/svg">
<path d="M2.28955 19.761L2.29157 19.7603L53.1825 2.02577C53.1837 2.02538 53.1848 2.02499 53.186 2.02461C53.2327 2.00906 53.2853 2.00025 53.3382 2.00001C53.3995 1.99973 53.4464 2.0085 53.4814 2.01983C53.4824 2.02015 53.4834 2.02048 53.4844 2.0208L104.704 19.4418L104.706 19.4425C104.9 19.5082 105.021 19.704 104.997 19.9045L104.996 19.9079L96.9551 85.9447L96.9544 85.9501C96.9389 86.0802 96.8579 86.2052 96.7317 86.2747L53.597 109.947L53.594 109.949C53.5348 109.981 53.4632 110 53.3908 110C53.3168 110 53.2486 109.982 53.193 109.951L53.1879 109.948L10.2697 86.5935L10.2654 86.5912C10.1532 86.5305 10.0681 86.4141 10.0499 86.2641L10.0498 86.2632L2.00386 20.2217L2.00332 20.2173C1.97895 20.0208 2.0966 19.828 2.28955 19.761ZM55.3145 11.3283L53.5001 7.41547L51.6857 11.3283L20.0717 79.5051L18.7541 82.3465H21.8861H32.6774H33.9547L34.4919 81.1876L40.7183 67.7562H66.2819L72.5082 81.1876L73.0454 82.3465H74.3227H85.114H88.246L86.9285 79.5051L55.3145 11.3283ZM59.9096 53.9976H47.0906L53.5001 40.0818L59.9096 53.9976Z" fill="#50FA7B" stroke="#50FA7B" stroke-width="4"/>
</svg>
