<svg width="100" height="112" viewBox="0 0 100 112" fill="none" xmlns="http://www.w3.org/2000/svg">
<path d="M97.7204 3.08771L89.365 97.9816C89.3287 98.3939 89.0421 98.7413 88.6441 98.8552L50.2753 109.841C50.0954 109.892 49.9046 109.892 49.7247 109.841L11.3559 98.8552C10.9579 98.7413 10.6713 98.3939 10.635 97.9816L2.27961 3.08771C2.22813 2.50307 2.68886 2 3.27576 2H96.7242C97.3111 2 97.7719 2.50307 97.7204 3.08771ZM34.764 62.8421H29.0528C26.1843 62.8421 23.904 65.2503 24.0603 68.1146L24.6607 79.1178C24.7729 81.1724 26.1322 82.9485 28.0861 83.5934L48.4328 90.3092C49.4506 90.6452 50.5494 90.6452 51.5672 90.3092L71.9272 83.589C73.8701 82.9477 75.2262 81.1876 75.3508 79.1454L77.2948 47.2824L77.295 47.2797L78.5667 26.8902C78.7462 24.0119 76.4602 21.5789 73.5764 21.5789H26.177C23.2682 21.5789 20.9734 24.0524 21.191 26.9531L21.6255 32.7426C21.8212 35.3515 23.9952 37.3684 26.6114 37.3684H61.1768C61.7581 37.3684 62.217 37.8625 62.174 38.4423L61.7452 44.2318C61.7066 44.754 61.2716 45.1579 60.748 45.1579H39.6219C36.7611 45.1579 34.4835 47.5538 34.6283 50.4109L34.9216 56.2004C35.0564 58.8601 37.2522 60.9474 39.9152 60.9474H59.7326C60.3107 60.9474 60.7684 61.4362 60.7304 62.0131L60.1991 70.0839C60.1726 70.4866 59.9065 70.834 59.5246 70.9645L50.3233 74.1083C50.1137 74.1799 49.8863 74.1799 49.6767 74.1083L40.5308 70.9834C40.1396 70.8497 39.871 70.4891 39.8549 70.076L39.7602 67.6473C39.6556 64.9637 37.4497 62.8421 34.764 62.8421Z" stroke="#50FA7B" stroke-width="4"/>
</svg>
