<svg width="108" height="109" viewBox="0 0 108 109" fill="none" xmlns="http://www.w3.org/2000/svg">
<path d="M91.0257 17.4155L91.2802 17.6726C84.7813 25.3783 74.7678 31.1585 65.7907 33.3145L65.7886 33.315C61.0793 34.4516 56.6217 34.6829 52.0565 34.9198C51.4092 34.9534 50.7597 34.9871 50.1069 35.0235C44.9089 35.3135 39.5667 35.7776 34.055 37.9171L34.0545 37.9173C21.5007 42.7947 15.2517 52.8612 13.9346 62.5958C12.6442 72.1323 16.0911 81.8958 23.6389 85.6272L23.7276 85.6752C21.85 84.7897 19.629 84.8238 17.7469 85.8582C16.3555 86.6228 15.3164 87.8393 14.7563 89.2585C3.67553 76.3466 -0.594042 58.694 3.56353 41.905C8.12677 23.4779 22.1472 9.02294 40.2494 3.92882C58.342 -1.16258 77.7374 3.99379 91.0257 17.4155ZM25.0988 86.5414C24.8658 86.3509 24.6227 86.1781 24.3711 86.0234L24.3762 86.0262L25.0124 86.3705L25.7217 86.2282L25.3281 84.2673C25.7217 86.2282 25.7218 86.2282 25.7221 86.2281L25.7229 86.2279L25.7259 86.2273L25.737 86.2251L25.7798 86.2165L25.945 86.1829C26.0897 86.1534 26.3026 86.1098 26.5767 86.053C27.125 85.9394 27.9188 85.7729 28.9038 85.561C30.8734 85.1371 33.6104 84.5307 36.6811 83.8001C42.7957 82.3453 50.3299 80.3758 55.7496 78.3572L55.7516 78.3564C63.6996 75.3868 72.0686 70.2408 79.1737 63.6735C73.6218 70.3405 66.7894 75.9119 59.9041 79.448L59.8951 79.4526C56.1435 81.4035 52.8011 82.5939 48.7464 83.8689C47.7233 84.1907 46.6518 84.5186 45.5173 84.8659C42.1637 85.8923 38.2597 87.0872 33.4276 88.7879L33.4048 88.796L33.3821 88.8046C32.5725 89.1117 31.8533 89.4011 31.3363 89.6137C31.0775 89.7201 30.8686 89.8077 30.7234 89.869C30.6508 89.8997 30.5941 89.9238 30.555 89.9405L30.5098 89.9599L30.4975 89.9652L30.494 89.9667L30.4929 89.9672L30.4925 89.9673L30.4924 89.9674C30.4923 89.9674 30.4923 89.9674 31.285 91.8036L30.4923 89.9674L31.6128 93.7766C33.1837 93.5155 34.761 93.3369 35.9532 93.2235C36.5472 93.167 37.041 93.1271 37.3846 93.1014C37.5564 93.0886 37.6904 93.0793 37.7804 93.0733L37.8815 93.0667L37.9015 93.0655C41.8207 92.8801 46.2273 93.0192 50.9569 93.1686C51.6244 93.1897 52.2984 93.2109 52.9783 93.2315C58.4368 93.3969 64.2306 93.5155 69.8923 93.0864C81.0122 92.2435 92.0587 89.2573 99.2724 79.8944C98.3112 81.6429 97.2494 83.34 96.0902 84.9766C90.4908 92.8822 82.8386 99.0662 73.9818 102.847C65.1251 106.629 55.4072 107.86 45.9021 106.408C38.0193 105.203 30.5358 102.191 24.0149 97.6262C24.7975 97.2103 25.5035 96.6337 26.0805 95.9134L26.0788 95.9113C28.3652 93.0519 27.933 88.8634 25.0999 86.5423L25.0988 86.5414Z" stroke="#50FA7B" stroke-width="4"/>
</svg>
