<svg width="127" height="127" viewBox="0 0 127 127" fill="none" xmlns="http://www.w3.org/2000/svg">
<path d="M124.605 57.8425L69.1555 2.39506C65.9641 -0.798354 60.7849 -0.798354 57.5895 2.39506L46.0752 13.9096L60.6817 28.5164C64.076 27.3694 67.9683 28.1388 70.674 30.8446C73.3926 33.5677 74.1566 37.4934 72.9818 40.8986L87.0585 54.976C90.4642 53.8027 94.3937 54.5618 97.1138 57.2864C100.915 61.0865 100.915 67.2456 97.1138 71.0483C93.3113 74.8514 87.1523 74.8514 83.3477 71.0483C80.4882 68.1858 79.7818 63.9862 81.2294 60.4634L68.1018 47.3355L68.1003 81.8827C69.0519 82.3532 69.9211 82.9748 70.674 83.7232C74.4756 87.5233 74.4756 93.683 70.674 97.4886C66.8715 101.29 60.7095 101.29 56.9124 97.4886C53.1108 93.683 53.1108 87.5238 56.9124 83.7237C57.8234 82.8122 58.9061 82.0903 60.0978 81.5999V46.7308C58.9043 46.2436 57.821 45.5213 56.9124 44.607C54.0321 41.7306 53.3395 37.5043 54.8154 33.9675L40.4168 19.5672L2.39613 57.586C-0.798711 60.7824 -0.798711 65.9622 2.39613 69.1561L57.8465 124.605C61.0389 127.798 66.2171 127.798 69.4134 124.605L124.604 69.4136C127.798 66.2187 127.799 61.0359 124.605 57.8425Z" fill="#50FA7B"/>
</svg>
