<svg width="116" height="117" viewBox="0 0 116 117" fill="none" xmlns="http://www.w3.org/2000/svg">
<path d="M97.8741 18.5909L98.2413 18.9617C91.2394 27.3127 80.4045 33.5728 70.699 35.9023L70.6968 35.9028C65.6243 37.1262 60.822 37.3752 55.9195 37.6293C55.2243 37.6654 54.5271 37.7015 53.8269 37.7406C48.2459 38.0517 42.5281 38.5492 36.6316 40.8367L36.6311 40.8369C23.2018 46.0512 16.5218 56.8087 15.1136 67.2095C13.7322 77.4124 17.4282 87.816 25.4586 91.7817L26.2529 92.2112L26.8888 92.5552L27.5976 92.413L27.2043 90.452C27.5976 92.413 27.5978 92.413 27.598 92.4129L27.5989 92.4127L27.6021 92.4121L27.614 92.4097L27.6598 92.4005L27.837 92.3645C27.9923 92.3329 28.2208 92.2861 28.5151 92.2251C29.1037 92.1032 29.9558 91.9247 31.0134 91.6972C33.1281 91.2424 36.0668 90.5917 39.3637 89.8078C45.9306 88.2463 54.0152 86.1341 59.8271 83.9707L59.8291 83.97C68.9635 80.5592 78.6145 74.469 86.5583 66.6989C80.3505 74.6416 72.4126 81.3018 64.4096 85.4093L64.4006 85.414C60.3599 87.5139 56.7604 88.7947 52.402 90.1644C51.3016 90.5102 50.1499 90.8625 48.9308 91.2354C45.3292 92.337 41.1402 93.6184 35.9532 95.4428L35.9304 95.4508L35.9078 95.4594C35.0399 95.7885 34.2686 96.0986 33.7143 96.3264C33.4368 96.4405 33.2129 96.5342 33.0573 96.5999C32.9795 96.6328 32.9188 96.6586 32.877 96.6765L32.8287 96.6971L32.8156 96.7028L32.8119 96.7044L32.8108 96.7048L32.8104 96.705L32.8102 96.7051C32.8102 96.7051 32.8101 96.7051 33.6024 98.5415L32.8101 96.7051L33.93 100.514C35.6219 100.234 37.3198 100.041 38.6023 99.9195C39.2414 99.8587 39.7728 99.8158 40.1427 99.7881C40.3276 99.7743 40.472 99.7644 40.569 99.7579L40.6782 99.7508L40.7009 99.7494C44.9171 99.55 49.6569 99.6996 54.7364 99.8599C55.4534 99.8826 56.1772 99.9054 56.9072 99.9275C62.7698 100.105 68.9858 100.232 75.0582 99.772C87.1656 98.8549 99.152 95.5729 106.851 85.2156L107.642 84.1524C106.385 86.6291 104.945 89.018 103.329 91.2978C97.2995 99.8056 89.0588 106.461 79.5205 110.531C69.9823 114.6 59.5164 115.926 49.2797 114.363C40.7098 113.054 32.5782 109.762 25.5091 104.771C26.4178 104.328 27.2371 103.684 27.8964 102.862L27.8946 102.859C30.3005 99.8523 29.8451 95.4473 26.8648 93.0072L26.8636 93.0063C24.6741 91.2164 21.6219 90.9213 19.1333 92.2881C17.5948 93.133 16.4653 94.5033 15.9005 96.0948C3.84619 82.1827 -0.813666 63.0949 3.68362 44.9456C8.59741 25.1154 23.6954 9.55857 43.1904 4.07596C62.6759 -1.40396 83.5639 4.14621 97.8741 18.5909ZM17.5258 97.8913C17.7055 96.2843 18.6495 94.8355 20.096 94.0411C21.8638 93.0702 24.0347 93.2769 25.5978 94.5547L17.5258 97.8913Z" stroke="#50FA7B" stroke-width="4"/>
</svg>
