<svg width="95" height="128" viewBox="0 0 95 128" fill="none" xmlns="http://www.w3.org/2000/svg">
<path d="M76.5025 26.1497L75.4796 24.3734C75.6308 23.9909 75.7846 23.7552 75.8029 23.7496C75.8199 23.7447 75.8442 23.7379 75.8512 23.736L75.8469 23.737L75.7468 23.763C75.6577 23.7863 75.5278 23.8207 75.3607 23.8661C75.0267 23.9569 74.5449 24.0918 73.9424 24.2713C72.7385 24.6301 71.048 25.1684 69.0876 25.8916C65.1909 27.3292 60.1228 29.5352 55.6862 32.5746C51.3021 35.5781 47.1751 39.641 45.774 44.9136C44.322 50.3776 45.9701 56.4116 51.5928 62.8444L51.5942 62.846C52.8357 64.2641 53.2637 65.505 53.3512 66.5189C53.4414 67.5634 53.1871 68.5803 52.7316 69.5356C52.2731 70.4974 51.6455 71.3208 51.1097 71.9169C50.8463 72.2099 50.6167 72.4352 50.4597 72.5816C50.3815 72.6545 50.3223 72.707 50.287 72.7375C50.2695 72.7528 50.258 72.7625 50.2532 72.7665L76.5025 26.1497ZM76.5025 26.1497V23.6497C78.2579 25.1316 77.9 26.9784 77.5254 27.9257L76.5025 26.1497ZM58.3261 66.0152C58.9781 65.0536 59.4408 64.0668 59.6492 63.0778C59.9573 61.6158 59.7634 59.9211 58.3384 57.9302L58.3261 66.0152ZM58.3261 66.0152C58.1234 63.8564 57.2021 61.6614 55.3574 59.5539L58.3261 66.0152ZM54.4502 40.0213C53.7907 41.0427 53.3007 42.0605 52.9796 43.088C52.0452 46.0772 52.661 48.7363 53.8444 51.1314C54.7756 53.016 56.167 54.9333 57.5304 56.8119C57.8019 57.1862 58.0724 57.5589 58.3379 57.9295L54.4502 40.0213ZM54.4502 40.0213C52.5489 41.9268 51.1924 43.9921 50.6063 46.1977C49.7116 49.5645 50.4477 53.9361 55.3561 59.5524L54.4502 40.0213ZM17.0481 76.0184C17.0486 76.7723 17.3186 77.4242 17.6984 77.9344C16.366 77.7049 15.23 77.451 14.3196 77.1791C15.2473 76.7508 16.1583 76.3653 17.0481 76.0184ZM12.4609 76.3962C12.461 76.3962 12.4633 76.3981 12.4674 76.402C12.4628 76.3981 12.4608 76.3962 12.4609 76.3962ZM12.5594 78.1743C12.5593 78.1743 12.5606 78.1728 12.5635 78.1697C12.5609 78.1728 12.5594 78.1743 12.5594 78.1743ZM27.1757 78.9312C26.263 78.8784 25.3807 78.8178 24.5316 78.75L55.6143 77.649C58.8574 77.3812 62.1062 77.007 64.9935 76.6276C62.0857 77.2308 58.9299 77.7197 55.6517 78.1021C55.6516 78.1021 55.6516 78.1021 55.6515 78.1021C46.17 79.208 35.6648 79.4223 27.1757 78.9312ZM92.3771 77.4507C92.5407 78.5336 92.4027 79.8221 91.7392 81.2262C92.1905 79.6633 92.2754 78.1266 92.0182 76.6363C91.9676 76.3431 91.9042 76.0564 91.829 75.7765C92.1055 76.3177 92.2912 76.8825 92.3771 77.4507ZM27.4375 102.923C27.824 103.393 28.2974 103.736 28.7565 103.991C29.9252 104.638 31.6029 105.036 33.7917 105.283L33.792 105.283C43.9833 106.43 49.4278 106.308 60.294 104.302C60.604 104.478 60.9159 104.651 61.2296 104.821C50.7465 107.852 39.864 107.472 32.9384 105.722C30.9082 105.209 29.3204 104.602 28.2264 103.995C27.6136 103.655 27.263 103.375 27.0691 103.189C27.1698 103.106 27.2919 103.017 27.4375 102.923ZM23.3879 89.6242C23.4803 89.5492 23.5844 89.4712 23.7009 89.3905C23.8651 89.6907 24.0657 89.9627 24.2928 90.2071C23.8387 89.9915 23.5368 89.8053 23.3395 89.664C23.3549 89.6511 23.3711 89.6379 23.3879 89.6242ZM22.9988 90.0076C22.997 90.0078 23.0027 89.9961 23.0211 89.972C23.0099 89.9953 23.0006 90.0074 22.9988 90.0076ZM46.1193 31.782L46.1189 31.7823C40.707 36.0262 37.4284 40.0139 35.8483 43.926C34.5639 47.1058 34.4639 50.0804 35.0657 52.843C33.8877 50.8122 33.2487 48.9824 33.1168 47.3158C32.9782 45.5646 33.3849 43.8374 34.5868 42.0432C36.5727 39.0933 39.5038 36.4283 42.9194 33.6791C43.9798 32.8256 45.1014 31.9537 46.2458 31.0641C48.6422 29.201 51.1385 27.2604 53.3809 25.2495C51.439 27.3046 49.0492 29.4853 46.1193 31.782ZM16.7045 126.665C16.7132 126.667 16.722 126.668 16.7308 126.67C16.7068 126.666 16.684 126.662 16.6624 126.658L16.7045 126.665ZM6.30435 115.551C6.67572 116.046 7.14966 116.419 7.63467 116.705C7.37413 116.664 7.11336 116.623 6.85234 116.58L6.84994 116.58C4.84361 116.258 3.60236 115.874 2.89365 115.538C2.91512 115.518 2.9376 115.498 2.96115 115.477C3.53345 114.976 4.43711 114.399 5.63145 113.811C5.68263 114.424 5.90799 115.022 6.30435 115.551ZM2.3235 115.193C2.32411 115.193 2.3299 115.198 2.33904 115.209C2.32746 115.198 2.32289 115.193 2.3235 115.193Z" stroke="#50FA7B" stroke-width="5"/>
</svg>
