<svg width="149" height="149" viewBox="0 0 149 149" fill="none" xmlns="http://www.w3.org/2000/svg">
<path d="M79.721 4.22419L79.7205 4.22371C76.7579 1.25925 71.9479 1.25798 68.9795 4.22459L56.8851 16.3191L71.7773 31.2115C76.1403 30.185 80.9186 31.3611 84.331 34.7735L84.3321 34.7747C87.7593 38.2076 88.9309 43.0238 87.8746 47.4053L102.718 62.2494C107.099 61.1943 111.92 62.3593 115.352 65.7969C120.592 71.0369 120.591 79.5282 115.351 84.7699L115.351 84.7699C110.108 90.0133 101.616 90.0127 96.372 84.7703L96.3709 84.7693C92.7696 81.1641 91.6477 76.0235 92.9977 71.4628L81.8987 60.3637L81.8972 94.8917C82.7765 95.4347 83.5918 96.0775 84.3267 96.808L84.3307 96.8119C89.5728 102.052 89.5713 110.545 84.3317 115.79L84.3307 115.791C79.089 121.031 70.5929 121.032 65.3562 115.79C60.1169 110.545 60.1152 102.053 65.3566 96.8132C65.3567 96.8131 65.3568 96.813 65.3569 96.8129C65.357 96.8128 65.3571 96.8127 65.3573 96.8125C66.2891 95.8803 67.3513 95.092 68.5084 94.4712M79.721 4.22419L68.5084 94.4712M79.721 4.22419L144.776 69.2767L146.086 67.9659M79.721 4.22419L146.086 67.9659M68.5084 94.4712V95.7353H70.5084L69.7473 93.8858C69.3238 94.0601 68.9104 94.2555 68.5084 94.4712ZM146.086 67.9659L144.776 69.2768C147.741 72.2419 147.742 77.0561 144.775 80.0238C144.775 80.0239 144.775 80.0239 144.775 80.024M146.086 67.9659L144.775 80.024M4.22522 79.7215L4.2254 79.7217L69.2814 144.775L69.2817 144.776C72.2453 147.741 77.054 147.742 80.0236 144.775L80.0241 144.775M4.22522 79.7215L80.0241 144.775M4.22522 79.7215C1.25869 76.7559 1.25778 71.9453 4.22539 68.9758C4.22552 68.9757 4.22564 68.9755 4.22577 68.9754L47.418 25.7852M4.22522 79.7215L47.418 25.7852M80.0241 144.775L144.775 80.024M80.0241 144.775L144.775 80.024M47.418 25.7852L62.0028 40.3718C60.6218 44.949 61.7276 50.1222 65.3556 53.747C66.2862 54.6828 67.3492 55.4728 68.5084 56.0928L47.418 25.7852Z" stroke="#50FA7B" stroke-width="4"/>
</svg>
