<svg width="127" height="119" viewBox="0 0 127 119" fill="none" xmlns="http://www.w3.org/2000/svg">
<path d="M100.391 106.362H125.5V116.512H88.2772C92.8014 113.738 96.8831 110.316 100.391 106.362Z" fill="#50FA7B" stroke="#50FA7B" stroke-width="3"/>
<path d="M105.974 70.9069V71.1962C105.818 96.2094 85.4195 116.511 60.3711 116.511H2.31055V106.361L60.3689 106.362C79.9176 106.362 95.8237 90.46 95.8237 70.9093C95.8237 51.3579 79.9177 35.4546 60.3689 35.4546C40.8202 35.4546 24.9141 51.3561 24.9141 70.9093C24.9141 75.0502 25.6556 79.0608 27.032 82.8788L27.5734 84.3808L29.0387 83.7468L34.2027 81.5124L27.773 97.7513L11.529 91.3266L16.9697 88.9717L18.2847 88.4026L17.7763 87.0629C15.8146 81.894 14.7666 76.4827 14.7666 70.9082C14.7666 64.5979 16.0568 58.5854 18.3835 53.1177L18.9571 51.7697L17.6231 51.1644C16.2095 50.523 14.8782 49.7329 13.636 48.8164C8.1422 44.7626 4.56802 38.274 4.56802 30.9555C4.56802 18.7096 14.5326 8.74255 26.7809 8.74255C29.5438 8.74255 32.2051 9.25823 34.7416 10.237L36.0197 10.7302L36.6265 9.50185L39.2215 4.24807L44.8254 20.7918L33.8227 24.5238L33.8224 24.5238L28.2866 26.4026L30.7536 21.404L31.5739 19.7419L29.7773 19.2862C28.8343 19.0471 27.8352 18.8898 26.7828 18.8898C20.1278 18.8898 14.718 24.3 14.718 30.9546C14.718 34.4487 16.2312 37.5665 18.5881 39.7597C19.9832 41.0604 21.6778 42.0019 23.5441 42.5267L24.4884 42.7922L25.1102 42.0337C33.4783 31.8256 46.1763 25.3034 60.3702 25.3034C85.5134 25.3034 105.974 45.7623 105.974 70.9069Z" fill="#50FA7B" stroke="#50FA7B" stroke-width="3"/>
</svg>
