<svg width="133" height="151" viewBox="0 0 133 151" fill="none" xmlns="http://www.w3.org/2000/svg">
<path d="M15.733 131.705L15.7334 131.709C15.9213 133.451 17.1373 134.893 18.7744 135.365L18.7764 135.365L65.3396 148.833L65.3454 148.835C65.7228 148.945 66.1126 149 66.4958 149C66.879 149 67.2689 148.945 67.6463 148.835L67.652 148.833L114.215 135.365L114.217 135.365C115.851 134.894 117.065 133.455 117.259 131.705L15.733 131.705ZM15.733 131.705L2.02567 6.77951C2.02563 6.77915 2.02559 6.77879 2.02556 6.77843C1.89303 5.5551 2.28013 4.3334 3.08491 3.42431C3.89145 2.51323 5.03492 2 6.22504 2H126.779C127.969 2 129.113 2.51323 129.919 3.42431C130.724 4.33377 131.11 5.55368 130.973 6.77263L130.972 6.77717L117.259 131.704L15.733 131.705ZM101.543 48.8251H103.381L103.536 46.9936L104.83 31.6794L105.014 29.5109H102.838H30.2599H28.0857L28.2669 31.6775L32.1637 78.2821L32.317 80.1154H34.1568H82.3411L80.9357 96.7384L66.6721 99.9821L52.131 96.7386L51.6252 90.7101L51.4714 88.8773H49.6322H35.2399H33.0664L33.2468 91.0433L34.8529 110.328L34.9635 111.656L36.2316 112.065L65.6133 121.55L65.6137 121.55L65.9058 121.644L66.5197 121.843L67.1337 121.645L96.8458 112.078L98.1143 111.67L98.2258 110.342L102.197 63.0125L102.379 60.8452H100.204H49.1149L48.1247 48.8251H101.543Z" stroke="#50FA7B" stroke-width="4"/>
</svg>
