<svg width="100" height="112" viewBox="0 0 100 112" fill="none" xmlns="http://www.w3.org/2000/svg">
<path d="M2.00175 2.47298L2.00181 2.47363L10.572 98.4688C10.5881 98.6476 10.7133 98.8003 10.8887 98.8505L49.8592 109.982C49.8601 109.982 49.861 109.983 49.8619 109.983C49.9047 109.995 49.9482 110 49.9854 110C50.0229 110 50.0666 109.994 50.1096 109.983C50.1103 109.982 50.111 109.982 50.1117 109.982L89.1163 98.8505C89.1166 98.8504 89.117 98.8503 89.1174 98.8502C89.2918 98.7997 89.4163 98.6479 89.4328 98.4699L2.00175 2.47298ZM2.00175 2.47298C1.99067 2.34925 2.03264 2.22945 2.11133 2.14371C2.19728 2.05007 2.31388 2 2.43475 2H97.5653C97.6854 2 97.8012 2.0494 97.887 2.14182C97.9687 2.2324 98.0089 2.35463 97.9983 2.47298L97.9983 2.47373L89.4329 98.4688L2.00175 2.47298ZM18.8829 63.8217L16.3483 63.1185V65.7489V77.7889V79.3096L17.8137 79.7161L44.596 87.1446L47.1305 87.8476V85.2174V21.913V19.913H45.1305H35.3915H33.3915V21.913V67.8468L18.8829 63.8217ZM83.7759 48.8671L83.9914 46.3626L81.5025 46.7155L66.6085 48.8269V33.6522H83.2466H85.0815L85.2392 31.824L86.0791 22.0849L86.2665 19.913H84.0865H54.8695H52.8695V21.913V63.3043V65.6784L55.2091 65.2753L69.7482 62.7704L69.4031 67.9467L54.3395 72.0864L52.8695 72.4904V74.0149V85.2174V87.8416L55.3999 87.1458L79.7474 80.4501L81.0903 80.0808L81.2097 78.6932L83.7759 48.8671Z" stroke="#50FA7B" stroke-width="4"/>
</svg>
