<svg width="106" height="106" viewBox="0 0 106 106" fill="none" xmlns="http://www.w3.org/2000/svg">
<path d="M63.8432 58.6469H63.0952H52.4762V95.9048V97.9048H50.4762H40.381H38.381V95.9048V58.6469H27.7619H25.7619V56.6469V47.9524V45.9524H27.7619H63.0952H65.0952V47.9524V54.3287C65.9979 52.4124 67.2922 50.8637 68.8801 49.6481C71.9846 47.2714 75.9829 46.3431 79.7102 46.0709C83.4687 45.7965 87.1835 46.1732 89.9277 46.6063C91.3072 46.824 92.4584 47.0588 93.269 47.2402C93.6747 47.3309 93.9959 47.4086 94.2188 47.4643C94.3302 47.4922 94.4172 47.5146 94.4779 47.5305L94.549 47.5494L94.5694 47.5548L94.5757 47.5566L94.5779 47.5572C94.5787 47.5574 94.5794 47.5576 94.0523 49.4869L94.5794 47.5576L96.1108 47.976L96.0508 49.5624L95.6975 58.9106L95.5626 62.4812L92.5929 60.5014L92.5921 60.5008L92.591 60.5001L92.5903 60.4997L92.5895 60.4991L92.5631 60.482C92.5367 60.4651 92.4933 60.4375 92.4337 60.4008C92.3145 60.3272 92.1313 60.2174 91.8922 60.0832C91.4126 59.8141 90.7147 59.4511 89.8615 59.0875C88.1329 58.351 85.8772 57.6601 83.5583 57.6601C81.1613 57.6601 79.8534 58.231 79.1749 58.8059C78.5331 59.3498 78.2392 60.077 78.2392 60.95C78.2392 61.6079 78.6411 62.3665 80.3687 63.4421C81.4829 64.1359 82.7704 64.7439 84.2471 65.4411C85.0923 65.8403 85.9995 66.2687 86.9717 66.7592C91.9771 69.2847 97.9021 73.1584 97.9022 81.4961L63.8432 58.6469ZM63.8432 58.6469C63.7222 59.5114 63.6594 60.4258 63.6594 61.3917C63.6594 69.8059 69.4612 73.9313 74.4544 76.62C75.4412 77.1513 76.4344 77.6464 77.3571 78.1064C77.6048 78.2298 77.8473 78.3507 78.0833 78.4691C79.2244 79.0416 80.2144 79.5565 81.0397 80.0732C82.8164 81.1856 83.1458 81.8889 83.1458 82.3771C83.1458 82.3953 83.1458 82.4143 83.1459 82.4342C83.1471 82.805 83.1494 83.4574 82.7497 84.0625C82.4274 84.5505 81.5066 85.4904 78.5334 85.4904C75.4953 85.4904 72.6443 84.53 70.5023 83.5208C69.4416 83.021 68.5812 82.5217 67.9914 82.1512C67.6971 81.9663 67.4719 81.8146 67.3248 81.7125C67.2513 81.6614 67.1974 81.6228 67.1643 81.5988L67.1303 81.574L67.1284 81.5726M63.8432 58.6469L67.1284 81.5726M67.1284 81.5726L67.1275 81.5719L67.1268 81.5714L67.1258 81.5706L67.1253 81.5702L63.9244 79.1573V83.1696V93.6636V95.1186L65.3088 95.5665L65.9244 93.6636C65.3088 95.5665 65.3095 95.5667 65.3104 95.567L65.3127 95.5677L65.3192 95.5699L65.3405 95.5767L65.4152 95.6001C65.479 95.62 65.5704 95.6482 65.6878 95.6833C65.9225 95.7535 66.2611 95.8518 66.6888 95.9678C67.5434 96.1998 68.7576 96.5039 70.2129 96.7978C73.1073 97.3824 77.0281 97.9415 80.9965 97.7781C84.9337 97.6161 89.1611 96.7333 92.4401 94.2065C95.8223 91.6001 97.9029 87.4739 97.9022 81.4963L67.1284 81.5726ZM2.52381 2H103.476C103.766 2 104 2.23393 104 2.52381V103.476C104 103.766 103.766 104 103.476 104H2.52381C2.23401 104 2 103.766 2 103.476V2.52381C2 2.23393 2.23401 2 2.52381 2Z" fill="#50FA7B" stroke="#50FA7B" stroke-width="4"/>
</svg>
